<svg width="72" height="72" viewBox="0 0 72 72" fill="none" xmlns="http://www.w3.org/2000/svg">
<circle cx="36" cy="36" r="36" fill="url(#paint0_linear_217_959)"/>
<path d="M45.4316 20H26.5684C22.9305 20 20 22.9305 20 26.5684V45.4316C20 49.0358 22.9305 52 26.5684 52H45.4316C49.0358 52 52 49.0695 52 45.4316V26.5684C52 22.9305 49.0695 20 45.4316 20ZM49.5074 45.4316C49.5074 47.6884 47.6884 49.5074 45.4316 49.5074H26.5684C24.3116 49.5074 22.4926 47.6884 22.4926 45.4316V26.5684C22.4926 24.3116 24.3116 22.4926 26.5684 22.4926H45.4316C47.6884 22.4926 49.5074 24.3116 49.5074 26.5684V45.4316Z" fill="white"/>
<path d="M30.4758 34.1811C31.7036 34.1811 32.6989 33.1857 32.6989 31.9579C32.6989 30.7301 31.7036 29.7347 30.4758 29.7347C29.248 29.7347 28.2526 30.7301 28.2526 31.9579C28.2526 33.1857 29.248 34.1811 30.4758 34.1811Z" fill="white"/>
<path d="M43.1074 32.8674L41.6926 31.9579L43.1074 31.0484C43.5453 30.7453 43.68 30.1389 43.4105 29.701C43.1074 29.2632 42.5011 29.1284 42.0632 29.3979L39.3684 31.1495C39.099 31.3179 38.9305 31.621 38.9305 31.9579C38.9305 32.2947 39.099 32.5979 39.3684 32.7663L42.0295 34.4842C42.1979 34.5853 42.3663 34.6526 42.5684 34.6526C42.8716 34.6526 43.2084 34.4842 43.3769 34.2147C43.68 33.7432 43.5453 33.1705 43.1074 32.8674Z" fill="white"/>
<path d="M42.0295 38.9979C41.4232 38.6947 40.6821 38.9642 40.379 39.5705C39.5705 41.2547 37.8863 42.2989 36 42.2989C34.1137 42.2989 32.4295 41.2547 31.6211 39.5705C31.3179 38.9642 30.5769 38.6947 29.9705 38.9979C29.3642 39.301 29.0948 40.0421 29.3979 40.6484C30.6105 43.141 33.2042 44.7579 36 44.7579C38.7958 44.7579 41.3895 43.141 42.6021 40.6484C42.9053 40.0421 42.6358 39.301 42.0295 38.9979Z" fill="white"/>
<defs>
<linearGradient id="paint0_linear_217_959" x1="36" y1="0" x2="36" y2="72" gradientUnits="userSpaceOnUse">
<stop stop-color="#BB00D9"/>
<stop offset="1" stop-color="#8700D9"/>
</linearGradient>
</defs>
</svg>
