<svg width="72" height="72" viewBox="0 0 72 72" fill="none" xmlns="http://www.w3.org/2000/svg">
<circle cx="36" cy="36" r="36" fill="url(#paint0_linear_217_960)"/>
<path d="M45.8576 37.4286C45.2469 39.4134 43.3973 40.8572 41.2143 40.8572C39.0302 40.8572 37.1817 39.4126 36.5711 37.4286H24.0714C23.2825 37.4286 22.6429 36.789 22.6429 36C22.6429 35.211 23.2825 34.5714 24.0714 34.5714H36.571C37.1818 32.5866 39.0314 31.1429 41.2143 31.1429C43.3984 31.1429 45.247 32.5874 45.8576 34.5714H46.9286C47.7176 34.5714 48.3572 35.211 48.3572 36C48.3572 36.789 47.7176 37.4286 46.9286 37.4286H45.8576ZM41.2143 34C40.112 34 39.2143 34.897 39.2143 36C39.2143 37.1023 40.1113 38 41.2143 38C42.3166 38 43.2143 37.103 43.2143 36C43.2143 34.8977 42.3173 34 41.2143 34ZM33.2862 26.2857C32.6754 28.2705 30.8258 29.7143 28.6429 29.7143C26.4581 29.7143 24.6091 28.2688 23.9991 26.2839C23.2437 26.2462 22.6429 25.6219 22.6429 24.8571C22.6429 24.0925 23.2437 23.4681 23.999 23.4304C24.6092 21.4446 26.4593 20 28.6429 20C30.827 20 32.6755 21.4446 33.2861 23.4286H46.9286C47.7176 23.4286 48.3572 24.0682 48.3572 24.8571C48.3572 25.6461 47.7176 26.2857 46.9286 26.2857H33.2862ZM28.6429 22.8571C27.5406 22.8571 26.6429 23.7542 26.6429 24.8571C26.6429 25.9594 27.5399 26.8571 28.6429 26.8571C29.7452 26.8571 30.6429 25.9601 30.6429 24.8571C30.6429 23.7549 29.7459 22.8571 28.6429 22.8571ZM37.2862 48.5714C36.6754 50.5563 34.8258 52 32.6429 52C30.4588 52 28.6102 50.5554 27.9996 48.5714H24.0714C23.2825 48.5714 22.6429 47.9319 22.6429 47.1429C22.6429 46.3539 23.2825 45.7143 24.0714 45.7143H27.9996C28.6103 43.7295 30.4599 42.2857 32.6429 42.2857C34.827 42.2857 36.6755 43.7303 37.2861 45.7143H46.9286C47.7176 45.7143 48.3572 46.3539 48.3572 47.1429C48.3572 47.9319 47.7176 48.5714 46.9286 48.5714H37.2862ZM32.6429 45.1429C31.5406 45.1429 30.6429 46.0399 30.6429 47.1429C30.6429 48.2452 31.5399 49.1429 32.6429 49.1429C33.7452 49.1429 34.6429 48.2459 34.6429 47.1429C34.6429 46.0406 33.7459 45.1429 32.6429 45.1429Z" fill="white"/>
<defs>
<linearGradient id="paint0_linear_217_960" x1="36" y1="0" x2="36" y2="72" gradientUnits="userSpaceOnUse">
<stop stop-color="#FFC700"/>
<stop offset="1" stop-color="#FE9213"/>
</linearGradient>
</defs>
</svg>
