<svg width="72" height="72" viewBox="0 0 72 72" fill="none" xmlns="http://www.w3.org/2000/svg">
<circle cx="36" cy="36" r="36" fill="url(#paint0_linear_217_957)"/>
<path d="M35.5988 16.0053C35.3767 16.0296 35.1719 16.1356 35.0246 16.3024C34.8774 16.4693 34.7983 16.6849 34.8031 16.9068V19.8885C26.8096 20.3344 20.3862 26.7163 19.9374 34.6583H16.9364C16.9085 34.657 16.8805 34.657 16.8526 34.6583C16.7353 34.6637 16.6202 34.6921 16.5139 34.7417C16.4076 34.7914 16.3122 34.8613 16.2331 34.9476C16.154 35.0339 16.0928 35.1348 16.053 35.2446C16.0131 35.3544 15.9955 35.4709 16.001 35.5875C16.0065 35.704 16.035 35.8184 16.085 35.924C16.135 36.0296 16.2054 36.1244 16.2923 36.2029C16.3792 36.2815 16.4808 36.3423 16.5913 36.3818C16.7018 36.4214 16.819 36.4389 16.9364 36.4334H19.9374C20.3862 44.3753 26.8096 50.7573 34.8031 51.2032V54.1849C34.8015 54.3025 34.8233 54.4193 34.8675 54.5284C34.9116 54.6376 34.9772 54.7369 35.0603 54.8207C35.1434 54.9044 35.2424 54.971 35.3517 55.0163C35.4609 55.0617 35.5781 55.0851 35.6965 55.0851C35.8149 55.0851 35.9321 55.0617 36.0413 55.0163C36.1505 54.971 36.2495 54.9044 36.3327 54.8207C36.4158 54.7369 36.4813 54.6376 36.5255 54.5284C36.5696 54.4193 36.5915 54.3025 36.5898 54.1849V51.2032C44.5833 50.7573 51.0067 44.3753 51.4555 36.4334H54.4566C54.575 36.4351 54.6925 36.4134 54.8023 36.3695C54.9122 36.3256 55.0122 36.2605 55.0965 36.1779C55.1808 36.0954 55.2477 35.997 55.2934 35.8884C55.3391 35.7799 55.3626 35.6635 55.3626 35.5459C55.3626 35.4282 55.3391 35.3118 55.2934 35.2033C55.2477 35.0948 55.1808 34.9963 55.0965 34.9138C55.0122 34.8312 54.9122 34.7661 54.8023 34.7222C54.6925 34.6783 54.575 34.6566 54.4566 34.6583H51.4555C51.0067 26.7163 44.5833 20.3344 36.5898 19.8885V16.9068C36.5926 16.7804 36.5681 16.655 36.5181 16.5387C36.4681 16.4225 36.3937 16.3183 36.2999 16.2329C36.2061 16.1476 36.095 16.0831 35.9741 16.0439C35.8532 16.0046 35.7252 15.9915 35.5988 16.0053ZM35.6965 21.6359C43.4362 21.6359 49.6968 27.856 49.6968 35.5459C49.6968 43.2356 43.4362 49.4558 35.6965 49.4558C27.9567 49.4558 21.6962 43.2356 21.6962 35.5459C21.6962 27.856 27.9567 21.6359 35.6965 21.6359ZM35.5988 30.2065C35.3767 30.2308 35.1719 30.3368 35.0246 30.5036C34.8774 30.6705 34.7983 30.8861 34.8031 31.108V34.6583H31.2298C31.2019 34.657 31.1739 34.657 31.146 34.6583C31.0287 34.6637 30.9136 34.6921 30.8073 34.7417C30.701 34.7914 30.6056 34.8613 30.5265 34.9476C30.4474 35.0339 30.3862 35.1348 30.3464 35.2446C30.3066 35.3544 30.2889 35.4709 30.2944 35.5875C30.2999 35.704 30.3285 35.8184 30.3784 35.924C30.4284 36.0296 30.4989 36.1244 30.5857 36.2029C30.6726 36.2815 30.7742 36.3423 30.8847 36.3818C30.9952 36.4214 31.1125 36.4389 31.2298 36.4334H34.8031V39.9837C34.8015 40.1013 34.8233 40.2181 34.8675 40.3273C34.9116 40.4364 34.9772 40.5357 35.0603 40.6195C35.1434 40.7032 35.2424 40.7698 35.3517 40.8152C35.4609 40.8606 35.5781 40.8839 35.6965 40.8839C35.8149 40.8839 35.9321 40.8606 36.0413 40.8152C36.1505 40.7698 36.2495 40.7032 36.3327 40.6195C36.4158 40.5357 36.4813 40.4364 36.5255 40.3273C36.5696 40.2181 36.5915 40.1013 36.5898 39.9837V36.4334H40.1632C40.2815 36.4351 40.3991 36.4134 40.5089 36.3695C40.6188 36.3256 40.7188 36.2605 40.8031 36.1779C40.8874 36.0954 40.9543 35.997 41 35.8884C41.0457 35.7799 41.0692 35.6635 41.0692 35.5459C41.0692 35.4282 41.0457 35.3118 41 35.2033C40.9543 35.0948 40.8874 34.9963 40.8031 34.9138C40.7188 34.8312 40.6188 34.7661 40.5089 34.7222C40.3991 34.6783 40.2815 34.6566 40.1632 34.6583H36.5898V31.108C36.5926 30.9816 36.5681 30.8561 36.5181 30.7399C36.4681 30.6237 36.3937 30.5195 36.2999 30.4341C36.2061 30.3488 36.095 30.2843 35.9741 30.2451C35.8532 30.2058 35.7252 30.1927 35.5988 30.2065Z" fill="white"/>
<defs>
<linearGradient id="paint0_linear_217_957" x1="36" y1="0" x2="36" y2="72" gradientUnits="userSpaceOnUse">
<stop stop-color="#FFC700"/>
<stop offset="1" stop-color="#FE9213"/>
</linearGradient>
</defs>
</svg>
