<svg width="19" height="22" viewBox="0 0 19 22" fill="none" xmlns="http://www.w3.org/2000/svg">
<path d="M9.68226 0.566406C5.32005 0.566406 1.78375 4.1027 1.78375 8.46495V13.1854L0.852893 14.1162C0.476395 14.4927 0.363775 15.0589 0.567531 15.5509C0.771288 16.0428 1.25131 16.3635 1.78375 16.3635H17.5808C18.1133 16.3635 18.5933 16.0428 18.7971 15.5509C19.0008 15.0589 18.8881 14.4927 18.5116 14.1162L17.5808 13.1854V8.46495C17.5808 4.1027 14.0445 0.566406 9.68226 0.566406Z" fill="white"/>
<path d="M9.68218 21.629C7.50107 21.629 5.73291 19.8609 5.73291 17.6797H13.6315C13.6315 19.8609 11.8634 21.629 9.68218 21.629Z" fill="white"/>
</svg>
