<svg width="17" height="17" viewBox="0 0 17 17" fill="none" xmlns="http://www.w3.org/2000/svg">
<g clip-path="url(#clip0_62_1180)">
<path d="M15.7493 2.83329C15.7493 4.10474 14.7188 5.13546 13.4473 5.13546C12.1759 5.13546 11.1453 4.10474 11.1453 2.83329C11.1453 1.56197 12.1759 0.53125 13.4473 0.53125C14.7188 0.53125 15.7493 1.56197 15.7493 2.83329Z" fill="white"/>
<path d="M13.4473 5.66671C11.8847 5.66671 10.614 4.39591 10.614 2.83329C10.614 1.2708 11.8847 0 13.4473 0C15.0099 0 16.2806 1.2708 16.2806 2.83329C16.2806 4.39591 15.0099 5.66671 13.4473 5.66671ZM13.4473 1.0625C12.4705 1.0625 11.6765 1.8573 11.6765 2.83329C11.6765 3.80941 12.4705 4.60421 13.4473 4.60421C14.4241 4.60421 15.2181 3.80941 15.2181 2.83329C15.2181 1.8573 14.4241 1.0625 13.4473 1.0625Z" fill="white"/>
<path d="M15.7493 14.1667C15.7493 15.438 14.7188 16.4687 13.4473 16.4687C12.1759 16.4687 11.1453 15.438 11.1453 14.1667C11.1453 12.8952 12.1759 11.8645 13.4473 11.8645C14.7188 11.8645 15.7493 12.8952 15.7493 14.1667Z" fill="white"/>
<path d="M13.4473 17C11.8847 17 10.614 15.7292 10.614 14.1667C10.614 12.604 11.8847 11.3333 13.4473 11.3333C15.0099 11.3333 16.2806 12.604 16.2806 14.1667C16.2806 15.7292 15.0099 17 13.4473 17ZM13.4473 12.3958C12.4705 12.3958 11.6765 13.1906 11.6765 14.1667C11.6765 15.1427 12.4705 15.9375 13.4473 15.9375C14.4241 15.9375 15.2181 15.1427 15.2181 14.1667C15.2181 13.1906 14.4241 12.3958 13.4473 12.3958Z" fill="white"/>
<path d="M5.83273 8.50004C5.83273 9.77148 4.802 10.8021 3.53056 10.8021C2.25924 10.8021 1.22852 9.77148 1.22852 8.50004C1.22852 7.22859 2.25924 6.198 3.53056 6.198C4.802 6.198 5.83273 7.22859 5.83273 8.50004Z" fill="white"/>
<path d="M3.53056 11.3333C1.96806 11.3333 0.697266 10.0627 0.697266 8.50004C0.697266 6.93742 1.96806 5.66675 3.53056 5.66675C5.09318 5.66675 6.36398 6.93742 6.36398 8.50004C6.36398 10.0627 5.09318 11.3333 3.53056 11.3333ZM3.53056 6.72925C2.55379 6.72925 1.75977 7.52392 1.75977 8.50004C1.75977 9.47616 2.55379 10.2708 3.53056 10.2708C4.50745 10.2708 5.30148 9.47616 5.30148 8.50004C5.30148 7.52392 4.50745 6.72925 3.53056 6.72925Z" fill="white"/>
<path d="M5.20294 8.16001C4.95638 8.16001 4.71695 8.03174 4.5866 7.8023C4.39322 7.463 4.51229 7.0302 4.85158 6.83604L11.4241 3.08901C11.7634 2.8942 12.1962 3.01327 12.3904 3.35386C12.5838 3.69315 12.4647 4.12596 12.1254 4.32012L5.55274 8.06715C5.44223 8.13018 5.32187 8.16001 5.20294 8.16001Z" fill="white"/>
<path d="M11.775 14.0039C11.656 14.0039 11.5356 13.974 11.4251 13.911L4.85246 10.164C4.51316 9.9706 4.39423 9.53779 4.58761 9.19771C4.78022 8.85777 5.21367 8.73806 5.55374 8.93287L12.1264 12.6799C12.4657 12.8733 12.5846 13.3061 12.3912 13.6462C12.2602 13.8756 12.0208 14.0039 11.775 14.0039Z" fill="white"/>
</g>
<defs>
<clipPath id="clip0_62_1180">
<rect width="17" height="17" fill="white"/>
</clipPath>
</defs>
</svg>
