<svg width="52" height="51" viewBox="0 0 52 51" fill="none" xmlns="http://www.w3.org/2000/svg">
<path fill-rule="evenodd" clip-rule="evenodd" d="M51.3466 25.5C51.3466 39.5833 39.8523 51 25.6733 51C11.4943 51 0 39.5833 0 25.5C0 11.4167 11.4943 0 25.6733 0C39.8523 0 51.3466 11.4167 51.3466 25.5ZM20.489 18.9014L28.4148 16.6439L27.995 15.7586C27.7204 15.1832 27.0506 14.9456 26.4992 15.2321L19.404 18.9014H20.489ZM30.5804 16.751C30.6786 16.7231 30.7769 16.7091 30.8751 16.7091C31.3663 16.7091 31.8173 17.0492 31.9512 17.5688L32.2995 18.9013H29.4864H23.032L28.7184 17.2822L30.5804 16.751ZM33.4627 19.7167H33.2082H32.8621H32.5161H29.8749H20.1697H18.8972H17.8255H17.6268H16.9615C16.6087 19.7167 16.2939 19.8868 16.0885 20.1547C15.9948 20.2782 15.9233 20.4203 15.8831 20.5764C15.8586 20.6742 15.843 20.7767 15.843 20.8816V21.0213V22.3493V33.8602C15.843 34.5032 16.3431 35.025 16.9593 35.025H33.4604C34.0767 35.025 34.5768 34.5032 34.5768 33.8602V30.6103H27.9526C26.9055 30.6103 26.0549 29.7227 26.0549 28.6301V27.5631V27.202V26.8409V26.0395C26.0549 25.5036 26.2603 25.0168 26.593 24.6603C26.8877 24.3435 27.2828 24.1291 27.7249 24.0755C27.7986 24.0663 27.8745 24.0616 27.9504 24.0616H33.648H33.994H34.3401H34.5768V20.8816C34.579 20.2386 34.0789 19.7167 33.4627 19.7167ZM34.9697 24.9329C35.1171 24.9865 35.2488 25.068 35.3604 25.1752C35.5837 25.3872 35.7243 25.6947 35.7243 26.0348V28.6278C35.7243 28.9679 35.5837 29.2754 35.3604 29.4874C35.2488 29.5946 35.1171 29.6784 34.9697 29.7297C34.8558 29.7693 34.7353 29.7926 34.608 29.7926H34.579H27.9526C27.3364 29.7926 26.8363 29.2707 26.8363 28.6278V27.3371V26.976V26.6149V26.0348C26.8363 25.3918 27.3364 24.87 27.9526 24.87H32.9626H34.2106H34.5567H34.579H34.608C34.7353 24.87 34.8558 24.8933 34.9697 24.9329ZM29.7253 28.1455C30.0334 28.1455 30.2835 27.8846 30.2835 27.5631V27.1764C30.2835 26.8548 30.0334 26.5939 29.7253 26.5939H29.4485H29.3547C29.2252 26.5939 29.1069 26.6428 29.0109 26.7197C28.8791 26.8246 28.7965 26.99 28.7965 27.1764V27.5631C28.7965 27.8846 29.0466 28.1455 29.3547 28.1455H29.7253Z" fill="#A7A7A7"/>
<path fill-rule="evenodd" clip-rule="evenodd" d="M51.3466 25.5C51.3466 39.5833 39.8523 51 25.6733 51C11.4943 51 0 39.5833 0 25.5C0 11.4167 11.4943 0 25.6733 0C39.8523 0 51.3466 11.4167 51.3466 25.5ZM20.489 18.9014L28.4148 16.6439L27.995 15.7586C27.7204 15.1832 27.0506 14.9456 26.4992 15.2321L19.404 18.9014H20.489ZM30.5804 16.751C30.6786 16.7231 30.7769 16.7091 30.8751 16.7091C31.3663 16.7091 31.8173 17.0492 31.9512 17.5688L32.2995 18.9013H29.4864H23.032L28.7184 17.2822L30.5804 16.751ZM33.4627 19.7167H33.2082H32.8621H32.5161H29.8749H20.1697H18.8972H17.8255H17.6268H16.9615C16.6087 19.7167 16.2939 19.8868 16.0885 20.1547C15.9948 20.2782 15.9233 20.4203 15.8831 20.5764C15.8586 20.6742 15.843 20.7767 15.843 20.8816V21.0213V22.3493V33.8602C15.843 34.5032 16.3431 35.025 16.9593 35.025H33.4604C34.0767 35.025 34.5768 34.5032 34.5768 33.8602V30.6103H27.9526C26.9055 30.6103 26.0549 29.7227 26.0549 28.6301V27.5631V27.202V26.8409V26.0395C26.0549 25.5036 26.2603 25.0168 26.593 24.6603C26.8877 24.3435 27.2828 24.1291 27.7249 24.0755C27.7986 24.0663 27.8745 24.0616 27.9504 24.0616H33.648H33.994H34.3401H34.5768V20.8816C34.579 20.2386 34.0789 19.7167 33.4627 19.7167ZM34.9697 24.9329C35.1171 24.9865 35.2488 25.068 35.3604 25.1752C35.5837 25.3872 35.7243 25.6947 35.7243 26.0348V28.6278C35.7243 28.9679 35.5837 29.2754 35.3604 29.4874C35.2488 29.5946 35.1171 29.6784 34.9697 29.7297C34.8558 29.7693 34.7353 29.7926 34.608 29.7926H34.579H27.9526C27.3364 29.7926 26.8363 29.2707 26.8363 28.6278V27.3371V26.976V26.6149V26.0348C26.8363 25.3918 27.3364 24.87 27.9526 24.87H32.9626H34.2106H34.5567H34.579H34.608C34.7353 24.87 34.8558 24.8933 34.9697 24.9329ZM29.7253 28.1455C30.0334 28.1455 30.2835 27.8846 30.2835 27.5631V27.1764C30.2835 26.8548 30.0334 26.5939 29.7253 26.5939H29.4485H29.3547C29.2252 26.5939 29.1069 26.6428 29.0109 26.7197C28.8791 26.8246 28.7965 26.99 28.7965 27.1764V27.5631C28.7965 27.8846 29.0466 28.1455 29.3547 28.1455H29.7253Z" fill="white"/>
</svg>
