<svg width="22" height="23" viewBox="0 0 22 23" fill="none" xmlns="http://www.w3.org/2000/svg">
<path fill-rule="evenodd" clip-rule="evenodd" d="M12.7521 2.13997C12.2427 0.0418851 9.25885 0.0418851 8.7495 2.13997C8.42048 3.49531 6.86767 4.1385 5.67663 3.4128C3.8329 2.28938 1.72297 4.3993 2.84639 6.24304C3.5721 7.43408 2.9289 8.98687 1.57356 9.31591C-0.524521 9.82526 -0.524521 12.8091 1.57356 13.3185C2.9289 13.6476 3.5721 15.2004 2.84639 16.3913C1.72297 18.2351 3.8329 20.345 5.67664 19.2216C6.86767 18.4959 8.42048 19.1391 8.7495 20.4945C9.25885 22.5925 12.2427 22.5925 12.7521 20.4945C13.0812 19.1391 14.634 18.4959 15.8249 19.2216C17.6687 20.345 19.7786 18.2351 18.6552 16.3913C17.9295 15.2004 18.5727 13.6476 19.9281 13.3185C22.0261 12.8091 22.0261 9.82526 19.9281 9.31591C18.5727 8.98687 17.9295 7.43408 18.6552 6.24304C19.7786 4.3993 17.6687 2.28938 15.8249 3.4128C14.634 4.1385 13.0812 3.49531 12.7521 2.13997ZM10.7508 15.3488C12.9774 15.3488 14.7823 13.5439 14.7823 11.3173C14.7823 9.09074 12.9774 7.28575 10.7508 7.28575C8.52424 7.28575 6.71925 9.09074 6.71925 11.3173C6.71925 13.5439 8.52424 15.3488 10.7508 15.3488Z" fill="white"/>
</svg>
