<svg width="43" height="43" viewBox="0 0 43 43" fill="none" xmlns="http://www.w3.org/2000/svg">
<path fill-rule="evenodd" clip-rule="evenodd" d="M43 21.5C43 33.3741 33.3741 43 21.5 43C9.62588 43 0 33.3741 0 21.5C0 9.62588 9.62588 0 21.5 0C33.3741 0 43 9.62588 43 21.5ZM21.8903 20.3964C22.6934 20.3964 23.4784 20.1582 24.1461 19.712C24.8138 19.2658 25.3341 18.6317 25.6413 17.8897C25.9485 17.1477 26.0288 16.3313 25.872 15.5437C25.7152 14.7561 25.3283 14.0328 24.7603 13.4651C24.1923 12.8974 23.4687 12.5109 22.681 12.3545C21.8934 12.1981 21.077 12.2788 20.3352 12.5864C19.5934 12.894 18.9595 13.4147 18.5137 14.0826C18.0678 14.7505 17.8301 15.5357 17.8305 16.3387C17.8322 17.4147 18.2606 18.4461 19.0216 19.2068C19.7827 19.9674 20.8143 20.3952 21.8903 20.3964ZM16.9172 22.952C18.2364 21.6328 20.0251 20.8909 21.8908 20.8892C23.7564 20.8909 25.5451 21.6328 26.8643 22.952C28.1835 24.2712 28.9253 26.0599 28.9271 27.9255V29.1065C28.9271 29.2499 28.8701 29.3874 28.7687 29.4888C28.6674 29.5902 28.5299 29.6471 28.3865 29.6471H15.395C15.2517 29.6471 15.1142 29.5902 15.0128 29.4888C14.9114 29.3874 14.8544 29.2499 14.8544 29.1065V27.9255C14.8562 26.0599 15.598 24.2712 16.9172 22.952Z" fill="white" fill-opacity="0.84"/>
</svg>
