<svg width="43" height="43" viewBox="0 0 43 43" fill="none" xmlns="http://www.w3.org/2000/svg">
<path fill-rule="evenodd" clip-rule="evenodd" d="M21.5 43C33.3741 43 43 33.3741 43 21.5C43 9.62588 33.3741 0 21.5 0C9.62588 0 0 9.62588 0 21.5C0 33.3741 9.62588 43 21.5 43ZM28.5 26.2909H26C25.0717 26.2909 24.1815 25.9154 23.5251 25.2471C22.8687 24.5788 22.5 23.6724 22.5 22.7272C22.5 21.7821 22.8687 20.8757 23.5251 20.2074C24.1815 19.539 25.0717 19.1636 26 19.1636H28.5V17.1272C28.4996 16.9923 28.4468 16.8631 28.3531 16.7677C28.2594 16.6723 28.1325 16.6185 28 16.6181H16C15.7373 16.6182 15.4772 16.5656 15.2345 16.4633C14.9919 16.361 14.7714 16.211 14.5856 16.0219C14.3999 15.8328 14.2526 15.6082 14.1521 15.3611C14.0518 15.1144 14.0001 14.85 14 14.5829V26.7999C13.9999 27.0674 14.0516 27.3322 14.1521 27.5793C14.2526 27.8264 14.3999 28.0509 14.5856 28.24C14.7714 28.4291 14.9919 28.5791 15.2345 28.6815C15.4772 28.7838 15.7373 28.8364 16 28.8363H28C28.1325 28.8359 28.2594 28.7822 28.3531 28.6868C28.4468 28.5914 28.4996 28.4621 28.5 28.3272V26.2909ZM24.5 15.6H16C15.7348 15.6 15.4804 15.4927 15.2929 15.3017C15.1054 15.1108 15 14.8518 15 14.5818C15 14.3117 15.1054 14.0528 15.2929 13.8618C15.4804 13.6709 15.7348 13.5636 16 13.5636H24C24.1326 13.5636 24.2598 13.6172 24.3536 13.7127C24.4473 13.8082 24.5 13.9377 24.5 14.0727V15.6ZM30 24.7636V20.6909C29.9996 20.556 29.9468 20.4267 29.8531 20.3313C29.7594 20.2359 29.6325 20.1822 29.5 20.1818H26C25.337 20.1818 24.7011 20.4499 24.2322 20.9273C23.7634 21.4047 23.5 22.0521 23.5 22.7272C23.5 23.4023 23.7634 24.0498 24.2322 24.5271C24.7011 25.0045 25.337 25.2727 26 25.2727H29.5C29.6325 25.2723 29.7594 25.2185 29.8531 25.1231C29.9468 25.0277 29.9996 24.8985 30 24.7636ZM26.8315 22.1616C26.9414 22.329 27 22.5258 27 22.7272C26.9992 22.997 26.8936 23.2555 26.7062 23.4463C26.5189 23.6371 26.265 23.7446 26 23.7454C25.8022 23.7454 25.6089 23.6857 25.4444 23.5738C25.28 23.4619 25.1518 23.3029 25.0761 23.1169C25.0004 22.9308 24.9806 22.7261 25.0192 22.5286C25.0578 22.3311 25.153 22.1497 25.2929 22.0073C25.4327 21.8649 25.6109 21.7679 25.8049 21.7286C25.9989 21.6893 26.2 21.7095 26.3827 21.7865C26.5654 21.8636 26.7216 21.9941 26.8315 22.1616Z" fill="#F1E0FC"/>
</svg>
