<svg width="43" height="43" viewBox="0 0 43 43" fill="none" xmlns="http://www.w3.org/2000/svg">
<circle cx="21.5" cy="21.5" r="21.5" fill="#F1E0FC"/>
<g clip-path="url(#clip0_71_964)">
<path d="M15.5755 18.6691H15.7857C16.5947 18.6691 17.2567 19.331 17.2567 20.1401V27.4953C17.2567 28.3043 16.5947 28.9663 15.7857 28.9663H15.5755C14.7665 28.9663 14.1045 28.3043 14.1045 27.4953V20.1401C14.1045 19.331 14.7665 18.6691 15.5755 18.6691V18.6691ZM21.4597 14.256C22.2687 14.256 22.9307 14.9179 22.9307 15.727V27.4953C22.9307 28.3043 22.2687 28.9663 21.4597 28.9663C20.6506 28.9663 19.9886 28.3043 19.9886 27.4953V15.727C19.9886 14.9179 20.6506 14.256 21.4597 14.256ZM27.3438 22.6619C28.1529 22.6619 28.8148 23.3238 28.8148 24.1329V27.4953C28.8148 28.3043 28.1529 28.9663 27.3438 28.9663C26.5347 28.9663 25.8728 28.3043 25.8728 27.4953V24.1329C25.8728 23.3238 26.5347 22.6619 27.3438 22.6619V22.6619Z" fill="#9921E5"/>
</g>
<defs>
<clipPath id="clip0_71_964">
<rect width="25.2177" height="25.2177" fill="white" transform="translate(8.85059 9.00232)"/>
</clipPath>
</defs>
</svg>
