<svg width="285" height="222" viewBox="0 0 285 222" fill="none" xmlns="http://www.w3.org/2000/svg">
<path d="M176.964 68.6515V0.359375H284.033V68.6515H176.964Z" fill="#FF9201"/>
<path d="M284.035 68.6511L239.315 34.0182C233.851 30.2609 226.616 30.2411 221.13 33.9647C205.763 44.396 176.966 68.6511 176.966 68.6511H284.035Z" fill="#BCDCFF"/>
<path d="M222.882 32.9609H222.569L176.964 0.369629L176.966 68.6506C176.966 68.6506 205.763 44.3955 221.128 33.9642C221.693 33.5815 222.286 33.2643 222.882 32.9609Z" fill="#A7D0FE"/>
<path d="M238.431 32.962H237.493C238.114 33.2792 238.729 33.6163 239.313 34.0188L284.035 68.6516V0.370605L238.431 32.962Z" fill="#A7D0FE"/>
<path d="M284.034 0.37043L239.315 35.0033C233.85 38.7606 226.615 38.7804 221.129 35.0568C205.762 24.6255 176.965 0.37043 176.965 0.37043H284.034Z" fill="white"/>
<g clip-path="url(#clip0_53_929)">
<path d="M229.316 89.8534L161.846 23.8965C153.422 15.6595 139.857 15.6595 131.434 23.8965L63.9641 89.8534V195.32H229.316V89.8534Z" fill="#FF9201"/>
<rect x="87.4402" y="41.4004" width="118.4" height="153.92" rx="4" fill="white"/>
<path fill-rule="evenodd" clip-rule="evenodd" d="M117 82.25C123.213 82.25 128.25 77.2132 128.25 71C128.25 64.7868 123.213 59.75 117 59.75C110.787 59.75 105.75 64.7868 105.75 71C105.75 77.2132 110.787 82.25 117 82.25ZM117 89C126.941 89 135 80.9411 135 71C135 61.0589 126.941 53 117 53C107.059 53 98.9999 61.0589 98.9999 71C98.9999 80.9411 107.059 89 117 89Z" fill="#2EC5CE"/>
<rect x="140.533" y="60.8164" width="53.4001" height="8.90002" rx="0.5" fill="#2EC5CE"/>
<rect opacity="0.4" x="140.533" y="74.1665" width="23.7334" height="7.41669" rx="0.5" fill="#2EC5CE"/>
<path d="M229.316 195.32L160.254 141.835C151.815 136.032 140.641 136.002 132.169 141.752C108.438 157.862 63.9641 195.32 63.9641 195.32H229.316Z" fill="#FFDC81"/>
<path d="M134.875 140.203H134.392L63.9641 91.21V195.32C63.9641 195.32 108.438 157.862 132.166 141.752C133.038 141.161 133.954 140.672 134.875 140.203Z" fill="#FFCA00"/>
<path d="M158.889 140.203H157.44C158.399 140.693 159.348 141.214 160.251 141.835L229.316 195.32V91.21L158.889 140.203Z" fill="#FFB800"/>
</g>
<path d="M0.688721 221.276V157.734H100.309V221.276H0.688721Z" fill="#FF9201"/>
<path d="M100.311 221.275L58.7023 189.052C53.6179 185.556 46.8861 185.537 41.7815 189.002C27.4841 198.707 0.689819 221.275 0.689819 221.275H100.311Z" fill="#BCDCFF"/>
<path d="M43.4123 188.069H43.1208L0.688171 157.745L0.689804 221.276C0.689804 221.276 27.4841 198.708 41.7797 189.002C42.3054 188.646 42.857 188.351 43.4123 188.069Z" fill="#A7D0FE"/>
<path d="M57.8795 188.069H57.0069C57.5843 188.364 58.1562 188.678 58.7004 189.052L100.311 221.276V157.745L57.8795 188.069Z" fill="#A7D0FE"/>
<path d="M100.31 157.745L58.7015 189.968C53.6172 193.464 46.8854 193.483 41.7808 190.018C27.4834 180.313 0.689087 157.745 0.689087 157.745H100.31Z" fill="white"/>
<circle cx="223.6" cy="177.56" r="35.52" fill="white"/>
<g opacity="0.4">
<path d="M232.48 166.764C232.48 172.012 228.22 176.266 222.966 176.266C217.711 176.266 213.452 172.012 213.452 166.764C213.452 161.516 217.711 157.262 222.966 157.262C228.22 157.262 232.48 161.516 232.48 166.764Z" fill="#2EC5CE"/>
<path d="M241.36 197.804C241.36 197.804 229.391 197.922 221.697 197.804C215.486 197.708 205.84 197.804 205.84 197.804C205.84 197.804 208.377 178.8 223.6 178.8C238.823 178.8 241.36 197.804 241.36 197.804Z" fill="#2EC5CE"/>
</g>
<circle cx="250.24" cy="150.92" r="14.8" fill="#2EC5CE"/>
<path fill-rule="evenodd" clip-rule="evenodd" d="M250.24 144.013C250.717 144.013 251.103 144.399 251.103 144.876V150.056H256.283C256.76 150.056 257.147 150.443 257.147 150.919C257.147 151.396 256.76 151.783 256.283 151.783H251.103V156.963C251.103 157.44 250.717 157.826 250.24 157.826C249.763 157.826 249.377 157.44 249.377 156.963V151.783H244.197C243.72 151.783 243.333 151.396 243.333 150.919C243.333 150.443 243.72 150.056 244.197 150.056H249.377V144.876C249.377 144.399 249.763 144.013 250.24 144.013Z" fill="white"/>
<defs>
<clipPath id="clip0_53_929">
<rect width="177.6" height="177.6" fill="white" transform="translate(57.84 17.7202)"/>
</clipPath>
</defs>
</svg>
