<svg width="92" height="91" viewBox="0 0 92 91" fill="none" xmlns="http://www.w3.org/2000/svg">
<path d="M45.7049 91C70.947 91 91.4098 70.629 91.4098 45.5C91.4098 20.371 70.947 0 45.7049 0C20.4628 0 0 20.371 0 45.5C0 70.629 20.4628 91 45.7049 91Z" fill="#627EEA"/>
<path d="M47.1292 11.3689V36.5942L68.5448 46.122L47.1292 11.3689Z" fill="white" fill-opacity="0.602"/>
<path d="M47.1293 11.3689L25.7137 46.122L47.1293 36.5942V11.3689Z" fill="white"/>
<path d="M47.1292 62.4664V79.6066L68.5572 50.0901L47.1292 62.4664Z" fill="white" fill-opacity="0.602"/>
<path d="M47.1293 79.6066V62.4664L25.7137 50.0901L47.1293 79.6066Z" fill="white"/>
<path d="M47.1292 58.4982L68.5448 46.1219L47.1292 36.594V58.4982Z" fill="white" fill-opacity="0.2"/>
<path d="M25.7137 46.1219L47.1293 58.4982V36.594L25.7137 46.1219Z" fill="white" fill-opacity="0.602"/>
</svg>
