<svg width="92" height="92" viewBox="0 0 92 92" fill="none" xmlns="http://www.w3.org/2000/svg">
<g clip-path="url(#clip0_142_1133)">
<path d="M46.0001 92C56.6425 92.0001 66.9556 88.3101 75.1824 81.5587C83.4091 74.8074 89.0403 65.4124 91.1166 54.9745C93.1929 44.5367 91.5858 33.7018 86.5691 24.3161C81.5524 14.9303 73.4365 7.57441 63.6043 3.50169C53.7721 -0.571037 42.8319 -1.10858 32.6478 1.98066C22.4637 5.06989 13.6658 11.5948 7.75314 20.4435C1.8405 29.2923 -0.821029 39.9174 0.222033 50.5085C1.26509 61.0996 5.94821 71.0014 13.4734 78.5267C22.1 87.1534 33.8002 91.9999 46.0001 92Z" fill="#23292F"/>
<path d="M62.8306 26.4094H69.7476L55.3648 40.7596C52.8652 43.2574 49.4762 44.6605 45.9426 44.6605C42.409 44.6605 39.0199 43.2574 36.5204 40.7596L22.1781 26.4094H29.0872L40.0122 37.3096C41.5956 38.891 43.742 39.7793 45.9798 39.7793C48.2177 39.7793 50.364 38.891 51.9474 37.3096L62.8306 26.4094Z" fill="white"/>
<path d="M29.0546 66.3222H22.1781L36.6106 51.8806C39.1101 49.3828 42.4991 47.9797 46.0328 47.9797C49.5664 47.9797 52.9554 49.3828 55.4549 51.8806L69.9148 66.3222H63.0122L52.0114 55.3319C50.4281 53.7505 48.2817 52.8622 46.0439 52.8622C43.806 52.8622 41.6597 53.7505 40.0763 55.3319L29.0546 66.3222Z" fill="white"/>
</g>
<defs>
<clipPath id="clip0_142_1133">
<rect width="92" height="92" fill="white"/>
</clipPath>
</defs>
</svg>
