<svg width="214" height="35" viewBox="0 0 214 35" fill="none" xmlns="http://www.w3.org/2000/svg">
<path fill-rule="evenodd" clip-rule="evenodd" d="M61.5083 25.9072C60.0461 28.8437 58.0197 31.093 55.4292 32.6553C52.8388 34.2175 49.8401 34.999 46.4331 34.9997C43.903 34.9997 41.5683 34.5129 39.4291 33.5392C37.2899 32.5656 35.3744 31.1265 33.6824 29.2219C32.2477 27.6447 31.1384 25.8007 30.4177 23.7952C30.3649 23.6521 30.3161 23.509 30.2663 23.3649C32.0623 23.4319 33.8684 23.4075 35.6715 23.2959C36.2042 24.4301 36.9179 25.4704 37.7846 26.3761C38.9216 27.5651 40.2843 28.5163 41.7933 29.1742C43.2506 29.825 44.8285 30.1635 46.425 30.1677C48.3561 30.1677 50.1013 29.8054 51.6503 29.0717C53.1792 28.3622 54.4997 27.2722 55.4851 25.9062L61.5083 25.9072Z" fill="url(#paint0_linear_167_1071)"/>
<path fill-rule="evenodd" clip-rule="evenodd" d="M14.133 29.7902H17.975C20.2354 29.7902 21.8982 29.3693 22.9634 28.5276C24.0286 27.686 24.5632 26.3859 24.5673 24.6274C24.5723 24.0126 24.504 23.3993 24.364 22.8006C26.0097 23.0602 27.6676 23.2356 29.3312 23.3263C29.3474 23.5689 29.3556 23.8155 29.3556 24.0682C29.3675 25.588 29.0691 27.0944 28.4784 28.4952C27.8858 29.8775 27.0798 31.0212 26.039 31.9296C25.0309 32.7913 23.8473 33.4239 22.5701 33.7838C21.2827 34.1552 19.4643 34.3396 17.1151 34.3369H9.34167V17.3242C10.8729 18.2885 12.4745 19.1366 14.133 19.8615V29.7902Z" fill="url(#paint1_linear_167_1071)"/>
<path fill-rule="evenodd" clip-rule="evenodd" d="M34.8126 17.9657C41.7485 17.03 48.0919 14.6896 53.5072 11.3344C47.8794 12.8344 41.7658 13.7935 35.3137 14.0979L34.8055 14.1192C34.9534 13.5785 35.1354 13.0477 35.3503 12.5299C35.9797 10.9901 36.9 9.58567 38.061 8.39321C39.1456 7.27441 40.4458 6.38642 41.8832 5.78275C43.3206 5.17908 44.8656 4.87222 46.425 4.88066C48.4252 4.88066 50.2039 5.25921 51.7854 6.00922C53.3759 6.78085 54.7461 7.93998 55.7697 9.37969H61.5083C60.1816 6.39454 58.2104 4.08362 55.5949 2.44694C52.9794 0.81025 49.9414 -0.00538601 46.4809 2.67628e-05C44.177 2.67628e-05 42.0294 0.413088 40.0379 1.23921C38.0002 2.0867 36.1476 3.32292 34.5839 4.87862C32.8561 6.60395 31.5398 8.51703 30.6464 10.625C30.1584 11.7703 29.8001 12.9665 29.5782 14.1913C28.4988 14.1751 27.4261 14.1412 26.3603 14.0898C26.4771 13.9244 26.5859 13.7549 26.6865 13.5824C27.2964 12.5167 27.6013 11.2857 27.6013 9.90439C27.6013 6.88812 26.6659 4.59615 24.795 3.02847C22.9242 1.4608 20.1863 0.674255 16.5815 0.668842H9.34171V11.5891C6.16683 10.7943 3.04648 9.7963 0 8.60126C7.60773 14.9576 18.0492 18.6558 29.3414 18.397L29.7479 18.3859L29.936 18.3798L30.3537 18.3635L30.5854 18.3524C30.7125 18.3463 30.8395 18.3402 30.9666 18.3321L31.1871 18.3199L31.5541 18.2955L31.8336 18.2763L32.0074 18.2631L32.0866 18.257L32.1659 18.2499L32.483 18.2235L32.5623 18.2164L32.6416 18.2093L32.7209 18.2022L33.1183 18.1636L33.1976 18.1555L33.2768 18.1474L33.3561 18.1392L33.7535 18.0956L33.8338 18.0865L33.9131 18.0773L33.9934 18.0682C34.2658 18.0357 34.5382 18.0022 34.8065 17.9667L34.8126 17.9657ZM21.0587 13.6707L20.949 13.6585L20.8392 13.6463L20.7294 13.6341L20.6674 13.628L20.6207 13.6219L20.5109 13.6098L20.2924 13.5844L20.1836 13.5712L20.0738 13.558L19.9651 13.5448L19.8563 13.5316L19.7476 13.5184L19.6388 13.5052L19.5301 13.492L19.4213 13.4778L19.3126 13.4636L19.2038 13.4504L19.0951 13.4352L18.9873 13.421L18.8786 13.4068L18.7708 13.3926L18.6621 13.3774L18.5543 13.3631L18.4456 13.3479L18.1224 13.3023L18.0136 13.287L17.9059 13.2718L17.7981 13.2566L17.7087 13.2434H17.6914L17.5837 13.2272L17.4759 13.2109L17.3682 13.1957L17.2615 13.1784L17.1537 13.1622L17.047 13.146L16.9403 13.1297L16.7258 13.0952L16.6191 13.079L16.5124 13.0617L16.2989 13.0262L16.1973 13.009L16.0906 12.9917L15.9839 12.9734L15.6647 12.9196L15.5631 12.9014L15.3506 12.8638L15.249 12.8456L15.1474 12.8273L15.0457 12.808L14.8343 12.7705L14.7327 12.7512L14.631 12.7319L14.3434 12.6781L14.3149 12.672L14.2133 12.6527V5.25718H16.8295C18.8298 5.25718 20.3239 5.62864 21.2956 6.37864C22.2672 7.12865 22.75 8.28055 22.75 9.84349C22.75 11.6026 22.2151 12.8655 21.1451 13.6321L21.0587 13.6707Z" fill="url(#paint2_linear_167_1071)"/>
<path d="M81.7839 24.0234V10.3307H86.5802C88.2416 10.3307 89.5018 10.6504 90.3607 11.2899C91.2197 11.9231 91.6491 12.8542 91.6491 14.083C91.6491 14.7539 91.4767 15.3463 91.1319 15.8604C90.7871 16.3683 90.3074 16.7413 89.693 16.9796C90.3952 17.1551 90.9469 17.5093 91.3482 18.0423C91.7557 18.5752 91.9595 19.2272 91.9595 19.9984C91.9595 21.315 91.5394 22.3118 90.6993 22.989C89.8592 23.6661 88.6617 24.0109 87.1068 24.0234H81.7839ZM84.6052 18.0611V21.757H87.0222C87.6868 21.757 88.204 21.6002 88.5739 21.2868C88.9501 20.967 89.1382 20.5281 89.1382 19.9702C89.1382 18.7162 88.4893 18.0799 87.1915 18.0611H84.6052ZM84.6052 16.0673H86.693C88.1162 16.0423 88.8278 15.4749 88.8278 14.3651C88.8278 13.7445 88.646 13.2993 88.2824 13.0297C87.925 12.7539 87.3576 12.6159 86.5802 12.6159H84.6052V16.0673Z" fill="white"/>
<path d="M101.815 21.2021H96.8686L95.9281 24.0234H92.9281L98.0253 10.3307H100.64L105.765 24.0234H102.765L101.815 21.2021ZM97.6303 18.9169H101.054L99.3325 13.7915L97.6303 18.9169Z" fill="white"/>
<path d="M118.179 24.0234H115.358L109.865 15.014V24.0234H107.044V10.3307H109.865L115.367 19.3589V10.3307H118.179V24.0234Z" fill="white"/>
<path d="M124.931 18.5313L123.464 20.1112V24.0234H120.643V10.3307H123.464V16.5376L124.706 14.8354L128.195 10.3307H131.665L126.803 16.4153L131.806 24.0234H128.448L124.931 18.5313Z" fill="white"/>
<path d="M143.618 19.4623C143.511 20.9357 142.966 22.0955 141.981 22.9419C141.003 23.7883 139.712 24.2115 138.107 24.2115C136.351 24.2115 134.969 23.6222 133.959 22.4435C132.956 21.2586 132.455 19.6347 132.455 17.572V16.735C132.455 15.4184 132.687 14.2586 133.151 13.2554C133.615 12.2523 134.276 11.4843 135.135 10.9514C136 10.4122 137.003 10.1426 138.144 10.1426C139.724 10.1426 140.997 10.5658 141.963 11.4122C142.928 12.2586 143.486 13.4467 143.637 14.9764H140.815C140.746 14.0924 140.499 13.4529 140.072 13.0579C139.652 12.6567 139.01 12.4561 138.144 12.4561C137.204 12.4561 136.499 12.7946 136.028 13.4717C135.564 14.1426 135.326 15.1865 135.314 16.6034V17.6379C135.314 19.1175 135.536 20.199 135.981 20.8824C136.433 21.5658 137.141 21.9075 138.107 21.9075C138.978 21.9075 139.627 21.71 140.053 21.315C140.486 20.9137 140.734 20.2962 140.796 19.4623H143.618Z" fill="white"/>
<path d="M156.718 17.4874C156.718 18.8354 156.48 20.0172 156.003 21.0329C155.527 22.0485 154.843 22.8322 153.953 23.3839C153.069 23.9357 152.053 24.2115 150.906 24.2115C149.771 24.2115 148.759 23.9388 147.869 23.3934C146.978 22.8479 146.289 22.0705 145.8 21.0611C145.311 20.0454 145.063 18.8792 145.057 17.5626V16.8855C145.057 15.5376 145.298 14.3526 145.781 13.3307C146.27 12.3025 146.956 11.5156 147.84 10.9702C148.731 10.4184 149.746 10.1426 150.887 10.1426C152.028 10.1426 153.041 10.4184 153.925 10.9702C154.815 11.5156 155.502 12.3025 155.985 13.3307C156.474 14.3526 156.718 15.5344 156.718 16.8761V17.4874ZM153.859 16.8667C153.859 15.431 153.602 14.3401 153.088 13.594C152.574 12.8479 151.84 12.4749 150.887 12.4749C149.941 12.4749 149.21 12.8448 148.696 13.5846C148.182 14.3181 147.922 15.3965 147.916 16.8197V17.4874C147.916 18.8855 148.173 19.9702 148.687 20.7413C149.201 21.5125 149.941 21.8981 150.906 21.8981C151.853 21.8981 152.58 21.5281 153.088 20.7883C153.596 20.0423 153.853 18.9576 153.859 17.5344V16.8667Z" fill="white"/>
<path d="M161.768 24.0234H158.947V10.3307H161.768V24.0234Z" fill="white"/>
<path d="M175.527 24.0234H172.705L167.213 15.014V24.0234H164.392V10.3307H167.213L172.715 19.3589V10.3307H175.527V24.0234Z" fill="white"/>
<path d="M177.991 24.0234V10.3307H182.787C184.448 10.3307 185.709 10.6504 186.568 11.2899C187.426 11.9231 187.856 12.8542 187.856 14.083C187.856 14.7539 187.684 15.3463 187.339 15.8604C186.994 16.3683 186.514 16.7413 185.9 16.9796C186.602 17.1551 187.154 17.5093 187.555 18.0423C187.963 18.5752 188.166 19.2272 188.166 19.9984C188.166 21.315 187.746 22.3118 186.906 22.989C186.066 23.6661 184.868 24.0109 183.314 24.0234H177.991ZM180.812 18.0611V21.757H183.229C183.894 21.757 184.411 21.6002 184.781 21.2868C185.157 20.967 185.345 20.5281 185.345 19.9702C185.345 18.7162 184.696 18.0799 183.398 18.0611H180.812ZM180.812 16.0673H182.9C184.323 16.0423 185.035 15.4749 185.035 14.3651C185.035 13.7445 184.853 13.2993 184.489 13.0297C184.132 12.7539 183.564 12.6159 182.787 12.6159H180.812V16.0673Z" fill="white"/>
<path d="M201.539 17.4874C201.539 18.8354 201.301 20.0172 200.825 21.0329C200.348 22.0485 199.665 22.8322 198.774 23.3839C197.89 23.9357 196.875 24.2115 195.727 24.2115C194.593 24.2115 193.58 23.9388 192.69 23.3934C191.8 22.8479 191.11 22.0705 190.621 21.0611C190.132 20.0454 189.884 18.8792 189.878 17.5626V16.8855C189.878 15.5376 190.119 14.3526 190.602 13.3307C191.091 12.3025 191.778 11.5156 192.662 10.9702C193.552 10.4184 194.568 10.1426 195.709 10.1426C196.85 10.1426 197.862 10.4184 198.746 10.9702C199.637 11.5156 200.323 12.3025 200.806 13.3307C201.295 14.3526 201.539 15.5344 201.539 16.8761V17.4874ZM198.68 16.8667C198.68 15.431 198.423 14.3401 197.909 13.594C197.395 12.8479 196.662 12.4749 195.709 12.4749C194.762 12.4749 194.031 12.8448 193.517 13.5846C193.003 14.3181 192.743 15.3965 192.737 16.8197V17.4874C192.737 18.8855 192.994 19.9702 193.508 20.7413C194.022 21.5125 194.762 21.8981 195.727 21.8981C196.674 21.8981 197.401 21.5281 197.909 20.7883C198.417 20.0423 198.674 18.9576 198.68 17.5344V16.8667Z" fill="white"/>
<path d="M213.088 12.6159H208.894V24.0234H206.072V12.6159H201.934V10.3307H213.088V12.6159Z" fill="white"/>
<path d="M71.0349 0.414307V34.3785" stroke="white" stroke-width="2"/>
<defs>
<linearGradient id="paint0_linear_167_1071" x1="17.0125" y1="32.1935" x2="59.398" y2="26.3918" gradientUnits="userSpaceOnUse">
<stop stop-color="#DED9D6"/>
<stop offset="0.04" stop-color="#CFCCC9"/>
<stop offset="0.11" stop-color="#A8A8A8"/>
<stop offset="0.21" stop-color="#6A7072"/>
<stop offset="0.26" stop-color="#465053"/>
<stop offset="0.37" stop-color="#878D8F"/>
<stop offset="0.46" stop-color="#B7BABB"/>
<stop offset="0.53" stop-color="#D5D6D6"/>
<stop offset="0.57" stop-color="#E0E0E0"/>
<stop offset="0.63" stop-color="#D6D7D8"/>
<stop offset="0.73" stop-color="#BCBFC2"/>
<stop offset="0.86" stop-color="#92989E"/>
<stop offset="0.88" stop-color="#8B9298"/>
<stop offset="1" stop-color="#A7A9AC"/>
</linearGradient>
<linearGradient id="paint1_linear_167_1071" x1="0.851029" y1="30.2578" x2="28.4124" y2="28.5952" gradientUnits="userSpaceOnUse">
<stop stop-color="#DED9D6"/>
<stop offset="0.04" stop-color="#CFCCC9"/>
<stop offset="0.11" stop-color="#A8A8A8"/>
<stop offset="0.21" stop-color="#6A7072"/>
<stop offset="0.26" stop-color="#465053"/>
<stop offset="0.37" stop-color="#878D8F"/>
<stop offset="0.46" stop-color="#B7BABB"/>
<stop offset="0.53" stop-color="#D5D6D6"/>
<stop offset="0.57" stop-color="#E0E0E0"/>
<stop offset="0.63" stop-color="#D6D7D8"/>
<stop offset="0.73" stop-color="#BCBFC2"/>
<stop offset="0.86" stop-color="#92989E"/>
<stop offset="0.88" stop-color="#8B9298"/>
<stop offset="1" stop-color="#A7A9AC"/>
</linearGradient>
<linearGradient id="paint2_linear_167_1071" x1="54.5506" y1="2.87108" x2="2.39257" y2="10.0488" gradientUnits="userSpaceOnUse">
<stop stop-color="#6BB8FF"/>
<stop offset="0.482367" stop-color="#6637ED"/>
<stop offset="1" stop-color="#8900D9"/>
</linearGradient>
</defs>
</svg>
