<svg width="88" height="88" viewBox="0 0 88 88" fill="none" xmlns="http://www.w3.org/2000/svg">
<g filter="url(#filter0_d_2610_100)">
<circle cx="44" cy="42" r="36" fill="url(#paint0_linear_2610_100)"/>
</g>
<path d="M56.8799 37.056C54.6905 37.056 52.5502 37.7147 50.7298 38.9489C48.9093 40.1831 47.4905 41.9373 46.6526 43.9897C45.8147 46.0421 45.5955 48.3005 46.0226 50.4793C46.4498 52.6581 47.5041 54.6594 49.0523 56.2302C50.6004 57.801 52.5729 58.8708 54.7203 59.3042C56.8677 59.7376 59.0935 59.5151 61.1163 58.665C63.139 57.8149 64.8679 56.3753 66.0843 54.5282C67.3007 52.6811 67.9499 50.5095 67.9499 48.288C67.9466 45.3101 66.7792 42.4552 64.7039 40.3495C62.6286 38.2438 59.8149 37.0594 56.8799 37.056ZM57.1862 47.3619C60.5132 48.494 61.2117 50.1935 61.2117 51.4196C61.2117 53.2534 59.816 54.6939 57.8426 55.0422V56.5899H55.9173V55.0189C53.9898 54.6156 52.5482 53.0664 52.5482 51.2179H54.4734C54.4734 52.2766 55.5881 53.171 56.9074 53.171C58.0896 53.171 59.2865 52.5694 59.2865 51.4196C59.2865 50.2619 57.3894 49.4912 56.5737 49.2137C53.2467 48.0815 52.5482 46.3821 52.5482 45.1559C52.5482 43.3221 53.9439 41.8817 55.9173 41.5333V39.9861H57.8426V41.5566C59.7701 41.9601 61.2117 43.5093 61.2117 45.3579H59.2865C59.2865 44.299 58.1718 43.4045 56.8524 43.4045C55.6703 43.4045 54.4734 44.0061 54.4734 45.1559C54.4734 46.3136 56.3704 47.0843 57.1862 47.3619Z" fill="white"/>
<path d="M41.9608 35.8702C47.9867 35.8702 52.8716 33.2943 52.8716 30.1169V27.8333C52.8716 24.6558 47.9867 22.08 41.9608 22.08C35.9349 22.08 31.05 24.6558 31.05 27.8333V30.1169C31.05 33.2943 35.9349 35.8702 41.9608 35.8702Z" fill="white"/>
<path d="M41.9601 41.7818C43.3783 41.7869 44.7928 41.6363 46.179 41.3325C47.7524 38.8507 50.1126 36.9871 52.8702 36.0493V33.8902C50.7505 36.1034 46.753 37.5344 41.9601 37.5344C37.1713 37.5344 33.1738 36.1034 31.05 33.8902V36.0285C31.05 39.2067 35.9331 41.7818 41.9601 41.7818Z" fill="white"/>
<path d="M41.9601 47.6931C42.7052 47.6937 43.4497 47.6534 44.1905 47.5725C44.2705 46.0721 44.6105 44.5977 45.195 43.217C44.1234 43.3713 43.0424 43.4477 41.9601 43.4458C37.1713 43.4458 33.1738 42.0147 31.05 39.8016V41.9398C31.05 45.1181 35.9331 47.6931 41.9601 47.6931Z" fill="white"/>
<path d="M41.9601 53.6086C43.0421 53.6098 44.1224 53.5235 45.1909 53.3507C44.6402 52.0485 44.3076 50.6622 44.2069 49.249C43.4812 49.3197 42.7309 49.3571 41.9601 49.3571C37.1713 49.3571 33.1738 47.9302 31.05 45.713V47.8554C31.05 51.0336 35.9331 53.6086 41.9601 53.6086Z" fill="white"/>
<path d="M41.9601 59.52C44.304 59.5514 46.6314 59.1176 48.8112 58.2428C47.687 57.3048 46.73 56.1777 45.9822 54.9107C44.6553 55.1565 43.3089 55.2777 41.9601 55.2727C37.1713 55.2726 33.1738 53.8416 31.05 51.6285V53.7667C31.05 56.945 35.9331 59.52 41.9601 59.52Z" fill="white"/>
<defs>
<filter id="filter0_d_2610_100" x="0" y="0" width="88" height="88" filterUnits="userSpaceOnUse" color-interpolation-filters="sRGB">
<feFlood flood-opacity="0" result="BackgroundImageFix"/>
<feColorMatrix in="SourceAlpha" type="matrix" values="0 0 0 0 0 0 0 0 0 0 0 0 0 0 0 0 0 0 127 0" result="hardAlpha"/>
<feOffset dy="2"/>
<feGaussianBlur stdDeviation="4"/>
<feComposite in2="hardAlpha" operator="out"/>
<feColorMatrix type="matrix" values="0 0 0 0 0.480125 0 0 0 0 0.120667 0 0 0 0 0.754167 0 0 0 0.42 0"/>
<feBlend mode="normal" in2="BackgroundImageFix" result="effect1_dropShadow_2610_100"/>
<feBlend mode="normal" in="SourceGraphic" in2="effect1_dropShadow_2610_100" result="shape"/>
</filter>
<linearGradient id="paint0_linear_2610_100" x1="44" y1="6" x2="44" y2="78" gradientUnits="userSpaceOnUse">
<stop stop-color="#BE6BFF"/>
<stop offset="0.482367" stop-color="#A437ED"/>
<stop offset="1" stop-color="#8900D9"/>
</linearGradient>
</defs>
</svg>
