<svg width="88" height="88" viewBox="0 0 88 88" fill="none" xmlns="http://www.w3.org/2000/svg">
<g filter="url(#filter0_d_2610_102)">
<circle cx="44" cy="42" r="36" fill="url(#paint0_linear_2610_102)"/>
</g>
<path d="M45.94 28.8563L44.5 37.5562L50.68 37.824H50.87C51.1181 37.8651 51.3534 37.9625 51.5572 38.1088C51.7611 38.2551 51.928 38.4462 52.045 38.6672C52.1588 38.8901 52.218 39.1365 52.218 39.3864C52.218 39.6363 52.1588 39.8827 52.045 40.1056L44.305 54.8368C44.176 55.0894 43.96 55.2879 43.6963 55.3963C43.4326 55.5046 43.1384 55.5158 42.8671 55.4277C42.5958 55.3396 42.3653 55.158 42.2172 54.9159C42.0692 54.6738 42.0134 54.3871 42.06 54.1077L43.5 45.393L37.315 45.1102H37.125C36.8777 45.0685 36.6435 44.9707 36.4405 44.8244C36.2376 44.6782 36.0714 44.4874 35.955 44.267C35.8416 44.044 35.7825 43.7977 35.7825 43.5478C35.7825 43.298 35.8416 43.0517 35.955 42.8286L43.685 28.1222C43.8187 27.8745 44.0362 27.6815 44.2991 27.577C44.5621 27.4726 44.8537 27.4633 45.1229 27.5509C45.392 27.6385 45.6214 27.8174 45.7709 28.0561C45.9203 28.2949 45.9802 28.5782 45.94 28.8563ZM44 17.9046C43.3681 17.9046 42.7621 18.1536 42.3153 18.5969C41.8685 19.0401 41.6175 19.6413 41.6175 20.2681C41.6175 20.8949 41.8685 21.4961 42.3153 21.9393C42.7621 22.3825 43.3681 22.6315 44 22.6315C48.8567 22.6355 53.5134 24.5507 56.948 27.957C60.3827 31.3633 62.3147 35.9822 62.32 40.8C62.32 41.4268 62.571 42.028 63.0178 42.4712C63.4646 42.9144 64.0706 43.1634 64.7025 43.1634C65.3343 43.1634 65.9403 42.9144 66.3871 42.4712C66.834 42.028 67.085 41.4268 67.085 40.8C67.0784 34.7289 64.6439 28.9085 60.3159 24.616C55.9879 20.3236 50.12 17.9099 44 17.9046ZM41.585 61.3294C41.5843 61.6395 41.6452 61.9466 41.7642 62.2333C41.8832 62.52 42.058 62.7807 42.2785 63.0003C42.4991 63.22 42.7611 63.3945 43.0496 63.5138C43.3381 63.633 43.6474 63.6947 43.96 63.6954C44.4305 63.6954 44.8904 63.557 45.2817 63.2978C45.673 63.0386 45.978 62.6702 46.1583 62.239C46.3386 61.8079 46.386 61.3335 46.2946 60.8756C46.2032 60.4178 45.977 59.9971 45.6446 59.6667C45.3123 59.3363 44.8887 59.1111 44.4273 59.0194C43.966 58.9278 43.4876 58.9738 43.0526 59.1517C42.6177 59.3297 42.2456 59.6315 41.9835 60.0191C41.7214 60.4067 41.581 60.8627 41.58 61.3294H41.585ZM23.3 43.1461C23.7713 43.1461 24.2321 43.0072 24.6238 42.7471C25.0155 42.487 25.3205 42.1174 25.5002 41.6852C25.6799 41.2529 25.7261 40.7774 25.6331 40.319C25.54 39.8606 25.3119 39.44 24.9775 39.1104C24.6432 38.7808 24.2177 38.5571 23.755 38.4677C23.2924 38.3783 22.8134 38.4272 22.3787 38.6082C21.9441 38.7892 21.5735 39.0941 21.3138 39.4843C21.0541 39.8745 20.917 40.3324 20.92 40.8C20.9239 41.4236 21.1764 42.0203 21.6223 42.4598C22.0682 42.8994 22.6713 43.1461 23.3 43.1461ZM32.43 60.6152C32.8372 60.8492 33.3052 60.9582 33.7748 60.9284C34.2444 60.8986 34.6946 60.7313 35.0685 60.4478C35.4423 60.1643 35.723 59.7771 35.8751 59.3354C36.0272 58.8936 36.0439 58.417 35.9231 57.9659C35.8022 57.5147 35.5492 57.1092 35.1961 56.8006C34.843 56.492 34.4056 56.2942 33.9392 56.2322C33.4727 56.1702 32.9983 56.2467 32.5757 56.4521C32.1531 56.6575 31.8014 56.9826 31.565 57.3862C31.2503 57.9287 31.1647 58.5727 31.3267 59.1775C31.4888 59.7824 31.8853 60.2992 32.43 60.6152ZM31.595 24.1989C31.8325 24.6012 32.1849 24.9247 32.6075 25.1286C33.0302 25.3326 33.5043 25.4078 33.97 25.3448C34.4357 25.2818 34.8722 25.0835 35.2244 24.7748C35.5766 24.4661 35.8288 24.0608 35.9492 23.6101C36.0695 23.1594 36.0527 22.6834 35.9007 22.2422C35.7488 21.801 35.4686 21.4143 35.0954 21.1309C34.7222 20.8474 34.2728 20.68 33.8038 20.6495C33.3348 20.6191 32.8672 20.7272 32.46 20.96C32.1875 21.1151 31.9487 21.3222 31.7575 21.5694C31.5662 21.8167 31.4263 22.0991 31.3459 22.4003C31.2654 22.7015 31.246 23.0156 31.2888 23.3244C31.3315 23.6331 31.4356 23.9303 31.595 24.1989ZM24.875 48.9989C24.466 49.2323 24.136 49.5808 23.9267 50.0004C23.7175 50.4199 23.6384 50.8916 23.6994 51.3557C23.7605 51.8198 23.9589 52.2556 24.2697 52.6078C24.5804 52.96 24.9895 53.2129 25.4452 53.3344C25.9009 53.4559 26.3827 53.4406 26.8296 53.2905C27.2765 53.1403 27.6684 52.862 27.9558 52.4908C28.2433 52.1195 28.4132 51.6721 28.4442 51.205C28.4752 50.738 28.3658 50.2723 28.13 49.8669C27.8132 49.3248 27.2926 48.9294 26.6824 48.7676C26.0721 48.6058 25.4221 48.6908 24.875 49.0038V48.9989ZM61.9 53.4629C62.4773 53.4654 63.0359 53.2597 63.4717 52.8841C63.9075 52.5084 64.1907 51.9884 64.2688 51.421C64.3468 50.8535 64.2142 50.2772 63.8957 49.7996C63.5772 49.3219 63.0946 48.9753 62.5376 48.8244C61.9807 48.6735 61.3874 48.7286 60.8684 48.9794C60.3494 49.2302 59.9399 49.6596 59.7163 50.1876C59.4927 50.7156 59.4702 51.3063 59.653 51.8495C59.8358 52.3928 60.2115 52.8516 60.71 53.1405C61.0697 53.3538 61.4808 53.4669 61.9 53.4678V53.4629ZM27.27 28.4794C26.8624 28.2461 26.3943 28.138 25.9248 28.1686C25.4553 28.1992 25.0055 28.3671 24.6321 28.6512C24.2588 28.9353 23.9788 29.3228 23.8274 29.7648C23.676 30.2067 23.66 30.6832 23.7815 31.1341C23.903 31.585 24.1565 31.9901 24.51 32.2982C24.8635 32.6062 25.301 32.8034 25.7675 32.8649C26.2339 32.9263 26.7082 32.8493 27.1305 32.6434C27.5527 32.4376 27.904 32.1122 28.14 31.7083C28.2969 31.4397 28.3989 31.1431 28.4401 30.8353C28.4813 30.5276 28.4609 30.2148 28.3801 29.9148C28.2993 29.6149 28.1596 29.3337 27.9691 29.0874C27.7786 28.8411 27.5411 28.6345 27.27 28.4794ZM52.27 59.7819C52.4785 60.1423 52.7793 60.4417 53.1419 60.6499C53.5045 60.858 53.916 60.9675 54.335 60.9674C54.7455 60.9611 55.1471 60.8482 55.5 60.64C55.9079 60.407 56.2371 60.0593 56.4458 59.6407C56.6545 59.2222 56.7334 58.7516 56.6725 58.2886C56.6116 57.8255 56.4137 57.3908 56.1038 57.0394C55.7938 56.6879 55.3858 56.4355 54.9312 56.3141C54.4767 56.1927 53.9961 56.2078 53.5501 56.3573C53.1042 56.5069 52.713 56.7843 52.426 57.1544C52.139 57.5246 51.9691 57.9708 51.9378 58.4367C51.9064 58.9027 52.0151 59.3673 52.25 59.772L52.27 59.7819Z" fill="white"/>
<defs>
<filter id="filter0_d_2610_102" x="0" y="0" width="88" height="88" filterUnits="userSpaceOnUse" color-interpolation-filters="sRGB">
<feFlood flood-opacity="0" result="BackgroundImageFix"/>
<feColorMatrix in="SourceAlpha" type="matrix" values="0 0 0 0 0 0 0 0 0 0 0 0 0 0 0 0 0 0 127 0" result="hardAlpha"/>
<feOffset dy="2"/>
<feGaussianBlur stdDeviation="4"/>
<feComposite in2="hardAlpha" operator="out"/>
<feColorMatrix type="matrix" values="0 0 0 0 0.480125 0 0 0 0 0.120667 0 0 0 0 0.754167 0 0 0 0.42 0"/>
<feBlend mode="normal" in2="BackgroundImageFix" result="effect1_dropShadow_2610_102"/>
<feBlend mode="normal" in="SourceGraphic" in2="effect1_dropShadow_2610_102" result="shape"/>
</filter>
<linearGradient id="paint0_linear_2610_102" x1="44" y1="6" x2="44" y2="78" gradientUnits="userSpaceOnUse">
<stop stop-color="#BE6BFF"/>
<stop offset="0.482367" stop-color="#A437ED"/>
<stop offset="1" stop-color="#8900D9"/>
</linearGradient>
</defs>
</svg>
