<svg width="88" height="88" viewBox="0 0 88 88" fill="none" xmlns="http://www.w3.org/2000/svg">
<g filter="url(#filter0_d_2610_101)">
<circle cx="44" cy="42" r="36" fill="url(#paint0_linear_2610_101)"/>
</g>
<path d="M24.2 49.5744V56.3592H29.2336V45.5L24.2 49.5744Z" fill="white"/>
<path d="M32.4984 42.86V56.3592H37.532V38.7988L32.4984 42.86Z" fill="white"/>
<path d="M42.0157 35.1908L40.7969 36.172V56.3592H45.8305V37.2676L42.0157 35.1908Z" fill="white"/>
<path d="M57.9084 38.0244V56.3636H62.942V31.9172L57.9084 38.0244Z" fill="white"/>
<path d="M49.0952 39.0496V56.3636H54.1288V41.7908L49.0952 39.0496Z" fill="white"/>
<path d="M63.8 23.6408L56.5224 26.8308L58.2428 28.098L53.9748 33.2812L41.9408 26.7252L40.92 27.5436C40.92 27.5436 35.1736 32.168 29.414 36.8188L24.2 41.034V46.094C28.7012 42.4332 36.3792 36.238 42.3632 31.4244L54.9428 38.284L61.4152 30.4256L62.92 31.5344L63.8 23.6408Z" fill="white"/>
<defs>
<filter id="filter0_d_2610_101" x="0" y="0" width="88" height="88" filterUnits="userSpaceOnUse" color-interpolation-filters="sRGB">
<feFlood flood-opacity="0" result="BackgroundImageFix"/>
<feColorMatrix in="SourceAlpha" type="matrix" values="0 0 0 0 0 0 0 0 0 0 0 0 0 0 0 0 0 0 127 0" result="hardAlpha"/>
<feOffset dy="2"/>
<feGaussianBlur stdDeviation="4"/>
<feComposite in2="hardAlpha" operator="out"/>
<feColorMatrix type="matrix" values="0 0 0 0 0.480125 0 0 0 0 0.120667 0 0 0 0 0.754167 0 0 0 0.42 0"/>
<feBlend mode="normal" in2="BackgroundImageFix" result="effect1_dropShadow_2610_101"/>
<feBlend mode="normal" in="SourceGraphic" in2="effect1_dropShadow_2610_101" result="shape"/>
</filter>
<linearGradient id="paint0_linear_2610_101" x1="44" y1="6" x2="44" y2="78" gradientUnits="userSpaceOnUse">
<stop stop-color="#BE6BFF"/>
<stop offset="0.482367" stop-color="#A437ED"/>
<stop offset="1" stop-color="#8900D9"/>
</linearGradient>
</defs>
</svg>
