<svg width="88" height="88" viewBox="0 0 88 88" fill="none" xmlns="http://www.w3.org/2000/svg">
<g filter="url(#filter0_d_2610_103)">
<circle cx="44" cy="42" r="36" fill="url(#paint0_linear_2610_103)"/>
</g>
<path d="M29.12 31.4233V27.856C29.12 27.5324 28.9936 27.2221 28.7686 26.9933C28.5435 26.7645 28.2383 26.636 27.92 26.636C27.6018 26.636 27.2966 26.7645 27.0715 26.9933C26.8465 27.2221 26.72 27.5324 26.72 27.856V31.1988C26.1591 31.4004 25.6733 31.7738 25.3295 32.2675C24.9857 32.7612 24.8007 33.3511 24.8 33.956V48.596C24.8007 49.2009 24.9857 49.7908 25.3295 50.2845C25.6733 50.7782 26.1591 51.1516 26.72 51.3532V54.696C26.72 55.0196 26.8465 55.3299 27.0715 55.5587C27.2966 55.7875 27.6018 55.916 27.92 55.916C28.2383 55.916 28.5435 55.7875 28.7686 55.5587C28.9936 55.3299 29.12 55.0196 29.12 54.696V51.1287C29.5574 50.872 29.9207 50.5028 30.1735 50.0583C30.4262 49.6138 30.5595 49.1095 30.56 48.596V33.956C30.5595 33.4425 30.4262 32.9382 30.1735 32.4937C29.9207 32.0492 29.5574 31.68 29.12 31.4233Z" fill="white"/>
<path d="M37.2801 31.4233V27.856C37.2801 27.5324 37.1537 27.2221 36.9286 26.9933C36.7036 26.7645 36.3983 26.636 36.0801 26.636C35.7618 26.636 35.4566 26.7645 35.2316 26.9933C35.0065 27.2221 34.8801 27.5324 34.8801 27.856V31.1988C34.3191 31.4004 33.8333 31.7738 33.4895 32.2675C33.1457 32.7612 32.9608 33.3511 32.9601 33.956V42.7058C32.9608 43.3108 33.1457 43.9006 33.4895 44.3943C33.8333 44.8881 34.3191 45.2614 34.8801 45.463V48.84C34.8801 49.1636 35.0065 49.4739 35.2316 49.7027C35.4566 49.9315 35.7618 50.06 36.0801 50.06C36.3983 50.06 36.7036 49.9315 36.9286 49.7027C37.1537 49.4739 37.2801 49.1636 37.2801 48.84V45.2337C37.7168 44.9774 38.0796 44.609 38.3323 44.1654C38.585 43.7218 38.7187 43.2185 38.7201 42.7058V33.956C38.7196 33.4425 38.5862 32.9382 38.3335 32.4937C38.0808 32.0492 37.7175 31.68 37.2801 31.4233Z" fill="white"/>
<path d="M45.4401 39.7193V36.152C45.4401 35.8284 45.3137 35.5181 45.0886 35.2893C44.8636 35.0605 44.5584 34.932 44.2401 34.932C43.9219 34.932 43.6166 35.0605 43.3916 35.2893C43.1665 35.5181 43.0401 35.8284 43.0401 36.152V39.4948C42.4791 39.6964 41.9934 40.0698 41.6496 40.5635C41.3058 41.0572 41.1208 41.6471 41.1201 42.252V46.156C41.1208 46.7609 41.3058 47.3508 41.6496 47.8445C41.9934 48.3382 42.4791 48.7116 43.0401 48.9132V52.256C43.0401 52.5796 43.1665 52.8899 43.3916 53.1187C43.6166 53.3475 43.9219 53.476 44.2401 53.476C44.5584 53.476 44.8636 53.3475 45.0886 53.1187C45.3137 52.8899 45.4401 52.5796 45.4401 52.256V48.6887C45.8775 48.432 46.2408 48.0628 46.4935 47.6183C46.7463 47.1738 46.8796 46.6695 46.8801 46.156V42.252C46.8796 41.7385 46.7463 41.2342 46.4935 40.7897C46.2408 40.3452 45.8775 39.976 45.4401 39.7193Z" fill="white"/>
<path d="M61.2801 31.1988V27.856C61.2801 27.5324 61.1536 27.2221 60.9286 26.9933C60.7035 26.7645 60.3983 26.636 60.0801 26.636C59.7618 26.636 59.4566 26.7645 59.2315 26.9933C59.0065 27.2221 58.8801 27.5324 58.8801 27.856V31.4233C58.4427 31.68 58.0794 32.0492 57.8266 32.4937C57.5739 32.9382 57.4406 33.4425 57.4401 33.956V38.836C57.4406 39.3495 57.5739 39.8538 57.8266 40.2983C58.0794 40.7428 58.4427 41.112 58.8801 41.3687V44.936C58.8801 45.2596 59.0065 45.5699 59.2315 45.7987C59.4566 46.0275 59.7618 46.156 60.0801 46.156C60.3983 46.156 60.7035 46.0275 60.9286 45.7987C61.1536 45.5699 61.2801 45.2596 61.2801 44.936V41.5932C61.841 41.3916 62.3268 41.0182 62.6706 40.5245C63.0144 40.0308 63.1994 39.4409 63.2001 38.836V33.956C63.1994 33.3511 63.0144 32.7612 62.6706 32.2675C62.3268 31.7738 61.841 31.4004 61.2801 31.1988Z" fill="white"/>
<path d="M53.12 31.1988V27.856C53.12 27.5324 52.9936 27.2221 52.7686 26.9933C52.5435 26.7645 52.2383 26.636 51.92 26.636C51.6018 26.636 51.2965 26.7645 51.0715 26.9933C50.8465 27.2221 50.72 27.5324 50.72 27.856V31.4233C50.2826 31.68 49.9194 32.0492 49.6666 32.4937C49.4139 32.9382 49.2805 33.4425 49.28 33.956V58.844C49.2805 59.3575 49.4139 59.8618 49.6666 60.3063C49.9194 60.7508 50.2826 61.12 50.72 61.3767V64.944C50.72 65.2676 50.8465 65.5779 51.0715 65.8067C51.2965 66.0355 51.6018 66.164 51.92 66.164C52.2383 66.164 52.5435 66.0355 52.7686 65.8067C52.9936 65.5779 53.12 65.2676 53.12 64.944V61.6012C53.681 61.3996 54.1668 61.0262 54.5106 60.5325C54.8544 60.0388 55.0394 59.4489 55.04 58.844V33.956C55.0394 33.3511 54.8544 32.7612 54.5106 32.2675C54.1668 31.7738 53.681 31.4004 53.12 31.1988Z" fill="white"/>
<defs>
<filter id="filter0_d_2610_103" x="0" y="0" width="88" height="88" filterUnits="userSpaceOnUse" color-interpolation-filters="sRGB">
<feFlood flood-opacity="0" result="BackgroundImageFix"/>
<feColorMatrix in="SourceAlpha" type="matrix" values="0 0 0 0 0 0 0 0 0 0 0 0 0 0 0 0 0 0 127 0" result="hardAlpha"/>
<feOffset dy="2"/>
<feGaussianBlur stdDeviation="4"/>
<feComposite in2="hardAlpha" operator="out"/>
<feColorMatrix type="matrix" values="0 0 0 0 0.480125 0 0 0 0 0.120667 0 0 0 0 0.754167 0 0 0 0.42 0"/>
<feBlend mode="normal" in2="BackgroundImageFix" result="effect1_dropShadow_2610_103"/>
<feBlend mode="normal" in="SourceGraphic" in2="effect1_dropShadow_2610_103" result="shape"/>
</filter>
<linearGradient id="paint0_linear_2610_103" x1="44" y1="6" x2="44" y2="78" gradientUnits="userSpaceOnUse">
<stop stop-color="#BE6BFF"/>
<stop offset="0.482367" stop-color="#A437ED"/>
<stop offset="1" stop-color="#8900D9"/>
</linearGradient>
</defs>
</svg>
