<svg width="19" height="17" viewBox="0 0 19 17" fill="none" xmlns="http://www.w3.org/2000/svg">
<path d="M9.35547 5.49098L12.0753 8.21082L12.0883 8.06835C12.0883 6.63934 10.9269 5.47803 9.49794 5.47803L9.35547 5.49098Z" fill="#C1C1C1"/>
<path d="M9.49788 3.75112C11.881 3.75112 13.8151 5.68524 13.8151 8.06833C13.8151 8.62525 13.7028 9.15626 13.5086 9.64409L16.0341 12.1697C17.3379 11.0817 18.3654 9.67433 19 8.06833C17.502 4.27784 13.8194 1.59253 9.49792 1.59253C8.28909 1.59253 7.13211 1.80838 6.05713 2.19692L7.92216 4.05762C8.40994 3.86768 8.94096 3.75112 9.49788 3.75112Z" fill="#C1C1C1"/>
<path d="M0.863427 1.39825L2.83207 3.36689L3.22495 3.75977C1.80027 4.87361 0.673483 6.35442 0 8.06832C1.49376 11.8588 5.18064 14.5441 9.49786 14.5441C10.8362 14.5441 12.1141 14.2851 13.2841 13.8145L13.651 14.1815L16.168 16.7027L17.2689 15.6062L1.96431 0.297363L0.863427 1.39825ZM5.63828 6.16877L6.97229 7.50278C6.93344 7.68844 6.90753 7.87405 6.90753 8.06832C6.90753 9.49733 8.06885 10.6586 9.49786 10.6586C9.69213 10.6586 9.87778 10.6327 10.0591 10.5939L11.3931 11.9279C10.8189 12.2128 10.18 12.3855 9.49786 12.3855C7.11476 12.3855 5.18064 10.4514 5.18064 8.06832C5.18064 7.38622 5.35334 6.74726 5.63828 6.16877Z" fill="#C1C1C1"/>
</svg>
