<svg width="19" height="20" viewBox="0 0 19 20" fill="none" xmlns="http://www.w3.org/2000/svg">
<g clip-path="url(#clip0_66_1470)">
<path d="M9.50008 7.27283C8.07075 7.27283 6.90918 8.49554 6.90918 10.0001C6.90918 11.5047 8.07075 12.7274 9.50008 12.7274C10.9294 12.7274 12.091 11.5047 12.091 10.0001C12.091 8.49554 10.9294 7.27283 9.50008 7.27283Z" fill="#6A6A6A"/>
<path d="M9.50002 3.18188C5.18182 3.18188 1.49411 6.00913 0 10.0001C1.49411 13.991 5.18182 16.8183 9.50002 16.8183C13.8225 16.8183 17.5059 13.991 19 10.0001C17.5059 6.00913 13.8225 3.18188 9.50002 3.18188ZM9.50002 14.5455C7.11638 14.5455 5.18182 12.5091 5.18182 10C5.18182 7.49094 7.11638 5.4546 9.50002 5.4546C11.8837 5.4546 13.8182 7.49098 13.8182 10.0001C13.8182 12.5092 11.8837 14.5455 9.50002 14.5455Z" fill="#6A6A6A"/>
</g>
<defs>
<clipPath id="clip0_66_1470">
<rect width="19" height="20" fill="white"/>
</clipPath>
</defs>
</svg>
