<svg width="72" height="88" viewBox="0 0 72 88" fill="none" xmlns="http://www.w3.org/2000/svg">
<circle cx="36" cy="36" r="36" fill="white"/>
<path fill-rule="evenodd" clip-rule="evenodd" d="M35.4122 12.4C38.8783 12.4 42.0274 13.8238 44.3089 16.119C46.5909 18.4134 48.0073 21.5805 48.0073 25.0672V28.859C48.0073 29.1226 47.8956 29.3495 47.6876 29.5103C47.4797 29.671 47.2338 29.7208 46.9798 29.6533C46.0958 29.4176 45.2253 29.2064 44.3664 29.0218C43.9851 28.9401 43.7195 28.6103 43.7195 28.2186V25.0672C43.7195 22.7714 42.7841 20.6826 41.2776 19.1682C39.7711 17.6525 37.6943 16.7116 35.4122 16.7116C33.1301 16.7116 31.0539 17.6525 29.5474 19.1682C28.0409 20.6826 27.1048 22.7714 27.1048 25.0672V28.2186C27.1048 28.6103 26.8393 28.9401 26.4586 29.0218C25.5997 29.2064 24.7286 29.4176 23.8446 29.6533C23.5906 29.7208 23.3447 29.671 23.1367 29.5103C22.9288 29.3495 22.8177 29.1233 22.8177 28.859V25.0672C22.8177 21.5805 24.2341 18.4134 26.5162 16.119C28.7969 13.8238 31.946 12.4 35.4122 12.4ZM20.1596 32.6515C31.1792 29.0157 39.6458 29.015 50.6647 32.6515C51.3143 32.8654 51.7736 33.6066 51.7736 34.2947V53.495C51.7736 54.8725 50.6525 55.9999 49.2828 55.9999H35.4122H21.5415C20.1718 55.9999 19.0508 54.8725 19.0508 53.495V34.2947C19.0508 33.6066 19.5107 32.8654 20.1596 32.6515ZM35.4122 40.7754C37.1375 40.7754 38.5369 42.3641 38.5369 43.9173C38.5369 45.3364 37.8074 46.2806 36.752 46.7602V49.321C36.752 49.616 36.5122 49.8578 36.2189 49.8578H34.6054C34.3121 49.8578 34.0723 49.616 34.0723 49.321V46.7602C33.017 46.2806 32.2881 45.3364 32.2881 43.9173C32.2881 42.3641 33.6869 40.7754 35.4122 40.7754Z" fill="#6906C5"/>
</svg>
