<svg width="72" height="72" viewBox="0 0 72 72" fill="none" xmlns="http://www.w3.org/2000/svg">
<circle cx="36" cy="36" r="36" fill="white"/>
<path d="M14 55.0696H21.1142V41.5574H14V55.0696ZM17.6359 45.9867H19.2175V47.3531H17.6359V45.9867ZM17.6359 48.7119H19.2175V50.0783H17.6359V48.7119ZM17.6359 51.4379H19.2175V52.8044H17.6359V51.4379Z" fill="#6906C5"/>
<path d="M57.1392 45.2856C56.6898 45.0088 56.1585 44.9799 55.682 45.2081L45.5383 50.0326C44.964 50.7654 44.073 51.2463 43.0623 51.2463H32.6767V49.689H43.0623C43.921 49.689 44.6192 49.0016 44.6192 48.1561C44.6192 47.3105 43.921 46.6232 43.0623 46.6232L37.383 46.6247C37.3082 46.577 33.8788 43.1911 29.2687 43.0828C26.455 43.0164 23.9261 42.9972 22.6959 42.9916V52.9014C25.8425 54.7293 33.4124 58.7379 36.3311 58.5963C42.0745 58.2784 56.8597 47.9835 57.008 47.8793C57.0304 47.8633 57.0535 47.8489 57.0783 47.836C58.0542 47.2936 58.1269 45.8954 57.1392 45.2856Z" fill="#6906C5"/>
<path d="M22.7065 34.2211H27.6337L27.3682 31.3306C27.9951 31.1636 28.5926 30.9166 29.1605 30.6044L31.0488 32.8267L34.5303 29.3988L32.2658 27.5396C32.5904 26.9804 32.8338 26.3921 33.0108 25.7748L35.9465 26.0289V21.1848L33.0108 21.4463C32.8338 20.829 32.5904 20.2334 32.2658 19.6742L34.5303 17.8223L31.0488 14.3944L29.1605 16.6167C28.5926 16.2972 27.9952 16.0575 27.3682 15.8832L27.6337 13H22.7065L22.9647 15.8832C22.3451 16.0575 21.7477 16.3044 21.1797 16.6167L19.2915 14.3944L15.8026 17.8223L18.067 19.6742C17.7499 20.2335 17.4991 20.829 17.3221 21.4463L14.3938 21.1848V26.0289L17.3221 25.7748C17.4991 26.3921 17.7499 26.9804 18.067 27.5396L15.8026 29.3988L19.2915 32.8267L21.1797 30.5971C21.7477 30.9167 22.3451 31.1636 22.9647 31.3306L22.7065 34.2211ZM21.9542 23.6105C21.9542 21.8603 23.3925 20.4441 25.1701 20.4441C26.9404 20.4441 28.3861 21.8603 28.3861 23.6105C28.3861 25.3608 26.9404 26.777 25.1701 26.777C23.3925 26.777 21.9542 25.3608 21.9542 23.6105Z" fill="#6906C5"/>
<path d="M41.6407 34.8676L39.6491 36.5016L42.8356 39.6391L44.4952 37.6782C44.9525 37.9251 45.4393 38.1212 45.9335 38.2664L45.7048 40.8083H50.2116L49.9755 38.2664C50.4771 38.1212 50.9565 37.9251 51.4212 37.6782L53.0808 39.6391L56.2672 36.5016L54.2757 34.8676C54.5265 34.4173 54.7257 33.9452 54.8732 33.4441L57.4548 33.6765V29.2391L54.8732 29.4715C54.7257 28.9777 54.5265 28.4983 54.2757 28.0481L56.2672 26.414L53.0808 23.2766L51.4212 25.2374C50.9639 24.9905 50.4771 24.7944 49.9755 24.6492L50.2116 22.1073H45.7048L45.9335 24.6492C45.4393 24.7944 44.9525 24.9905 44.4952 25.2374L42.8356 23.2766L39.6491 26.414L41.6407 28.048C41.3899 28.4983 41.1907 28.9777 41.0432 29.4715L38.4616 29.2391V33.6765L41.0432 33.4441C41.1907 33.9452 41.3898 34.4173 41.6407 34.8676ZM47.9545 28.6944C49.5035 28.6944 50.7648 29.9363 50.7648 31.4614C50.7648 32.9866 49.5035 34.2212 47.9545 34.2212C46.4055 34.2212 45.1516 32.9866 45.1516 31.4614C45.1516 29.9363 46.4055 28.6944 47.9545 28.6944Z" fill="#6906C5"/>
<path d="M36.6601 37.7867H35.1849V41.3364H36.6601V37.7867Z" fill="#6906C5"/>
<path d="M36.6601 35.0562H35.1849V36.7399H36.6601V35.0562Z" fill="#6906C5"/>
<path d="M39.6185 37.7867H38.1433V41.3364H39.6185V37.7867Z" fill="#6906C5"/>
<path d="M33.7019 37.7867H32.2267V41.3364H33.7019V37.7867Z" fill="#6906C5"/>
</svg>
