<svg width="61" height="54" viewBox="0 0 61 54" fill="none" xmlns="http://www.w3.org/2000/svg">
<path d="M4.76562 28.875V27H28.5938V28.875H4.76562ZM40.9844 13.875V12H4.76562V13.875H40.9844ZM29.2705 36.375C29.5566 37.6533 29.9454 38.9072 30.4333 40.125H2.85938C2.10172 40.1228 1.37574 39.8257 0.839991 39.2988C0.304244 38.7718 0.0022628 38.0577 0 37.3125L0 33.5625C0.0022628 32.8173 0.304244 32.1032 0.839991 31.5762C1.37574 31.0493 2.10172 30.7522 2.85938 30.75H28.6033C28.6133 32.0056 28.7153 33.2588 28.9083 34.5H19.0625C18.8097 34.5 18.5673 34.5988 18.3885 34.7746C18.2098 34.9504 18.1094 35.1889 18.1094 35.4375C18.1094 35.6861 18.2098 35.9246 18.3885 36.1004C18.5673 36.2762 18.8097 36.375 19.0625 36.375H29.2705ZM4.76562 35.4375C4.76562 35.2521 4.70972 35.0708 4.60499 34.9167C4.50026 34.7625 4.35141 34.6423 4.17725 34.5714C4.00308 34.5004 3.81144 34.4818 3.62655 34.518C3.44167 34.5542 3.27184 34.6435 3.13854 34.7746C3.00524 34.9057 2.91447 35.0727 2.87769 35.2546C2.84091 35.4365 2.85979 35.625 2.93193 35.7963C3.00407 35.9676 3.12623 36.114 3.28297 36.217C3.43971 36.32 3.62399 36.375 3.8125 36.375C4.06528 36.375 4.30772 36.2762 4.48646 36.1004C4.66521 35.9246 4.76562 35.6861 4.76562 35.4375ZM7.625 35.4375C7.625 35.2521 7.5691 35.0708 7.46437 34.9167C7.35964 34.7625 7.21078 34.6423 7.03662 34.5714C6.86246 34.5004 6.67082 34.4818 6.48593 34.518C6.30104 34.5542 6.13121 34.6435 5.99791 34.7746C5.86462 34.9057 5.77384 35.0727 5.73706 35.2546C5.70029 35.4365 5.71916 35.625 5.7913 35.7963C5.86344 35.9676 5.98561 36.114 6.14235 36.217C6.29909 36.32 6.48336 36.375 6.67188 36.375C6.92466 36.375 7.16709 36.2762 7.34584 36.1004C7.52458 35.9246 7.625 35.6861 7.625 35.4375ZM10.4844 35.4375C10.4844 35.2521 10.4285 35.0708 10.3237 34.9167C10.219 34.7625 10.0702 34.6423 9.896 34.5714C9.72183 34.5004 9.53019 34.4818 9.3453 34.518C9.16042 34.5542 8.99059 34.6435 8.85729 34.7746C8.72399 34.9057 8.63322 35.0727 8.59644 35.2546C8.55966 35.4365 8.57854 35.625 8.65068 35.7963C8.72282 35.9676 8.84498 36.114 9.00172 36.217C9.15846 36.32 9.34274 36.375 9.53125 36.375C9.78403 36.375 10.0265 36.2762 10.2052 36.1004C10.384 35.9246 10.4844 35.6861 10.4844 35.4375ZM0 22.3125V18.5625C0.0022628 17.8173 0.304244 17.1032 0.839991 16.5762C1.37574 16.0493 2.10172 15.7522 2.85938 15.75H42.8906C43.4806 15.7516 44.0555 15.9327 44.5367 16.2684C45.0179 16.6041 45.3818 17.0779 45.5784 17.625H37.1719C36.5819 17.6266 36.007 17.8077 35.5258 18.1434C35.0446 18.4791 34.6807 18.9529 34.4841 19.5H19.0625C18.8097 19.5 18.5673 19.5988 18.3885 19.7746C18.2098 19.9504 18.1094 20.1889 18.1094 20.4375C18.1094 20.6861 18.2098 20.9246 18.3885 21.1004C18.5673 21.2762 18.8097 21.375 19.0625 21.375H34.1409C33.9443 21.9221 33.5804 22.3959 33.0992 22.7316C32.618 23.0673 32.0431 23.2484 31.4531 23.25C30.8632 23.2516 30.2882 23.4327 29.807 23.7684C29.3258 24.1041 28.962 24.5779 28.7653 25.125H2.85938C2.10172 25.1228 1.37574 24.8257 0.839991 24.2988C0.304244 23.7718 0.0022628 23.0577 0 22.3125H0ZM8.57812 20.4375C8.57812 20.6229 8.63402 20.8042 8.73876 20.9583C8.84349 21.1125 8.99234 21.2327 9.1665 21.3036C9.34067 21.3746 9.53231 21.3932 9.7172 21.357C9.90208 21.3208 10.0719 21.2315 10.2052 21.1004C10.3385 20.9693 10.4293 20.8023 10.4661 20.6204C10.5028 20.4385 10.484 20.25 10.4118 20.0787C10.3397 19.9074 10.2175 19.761 10.0608 19.658C9.90404 19.555 9.71976 19.5 9.53125 19.5C9.27847 19.5 9.03603 19.5988 8.85729 19.7746C8.67854 19.9504 8.57812 20.1889 8.57812 20.4375ZM5.71875 20.4375C5.71875 20.6229 5.77465 20.8042 5.87938 20.9583C5.98411 21.1125 6.13297 21.2327 6.30713 21.3036C6.48129 21.3746 6.67293 21.3932 6.85782 21.357C7.04271 21.3208 7.21254 21.2315 7.34584 21.1004C7.47913 20.9693 7.56991 20.8023 7.60669 20.6204C7.64346 20.4385 7.62459 20.25 7.55245 20.0787C7.48031 19.9074 7.35814 19.761 7.2014 19.658C7.04466 19.555 6.86039 19.5 6.67188 19.5C6.41909 19.5 6.17666 19.5988 5.99791 19.7746C5.81917 19.9504 5.71875 20.1889 5.71875 20.4375ZM2.85938 20.4375C2.85938 20.6229 2.91527 20.8042 3.02001 20.9583C3.12474 21.1125 3.27359 21.2327 3.44775 21.3036C3.62192 21.3746 3.81356 21.3932 3.99845 21.357C4.18333 21.3208 4.35316 21.2315 4.48646 21.1004C4.61976 20.9693 4.71053 20.8023 4.74731 20.6204C4.78409 20.4385 4.76521 20.25 4.69307 20.0787C4.62093 19.9074 4.49877 19.761 4.34203 19.658C4.18529 19.555 4.00101 19.5 3.8125 19.5C3.55972 19.5 3.31728 19.5988 3.13854 19.7746C2.95979 19.9504 2.85938 20.1889 2.85938 20.4375ZM0 7.3125V3.5625C0.0022628 2.81726 0.304244 2.10319 0.839991 1.57622C1.37574 1.04926 2.10172 0.752226 2.85938 0.75H42.8906C43.6483 0.752226 44.3743 1.04926 44.91 1.57622C45.4458 2.10319 45.7477 2.81726 45.75 3.5625V7.3125C45.7477 8.05774 45.4458 8.77182 44.91 9.29878C44.3743 9.82574 43.6483 10.1228 42.8906 10.125H2.85938C2.10172 10.1228 1.37574 9.82574 0.839991 9.29878C0.304244 8.77182 0.0022628 8.05774 0 7.3125H0ZM18.1094 5.4375C18.1094 5.68614 18.2098 5.9246 18.3885 6.10041C18.5673 6.27623 18.8097 6.375 19.0625 6.375H41.9375C42.1903 6.375 42.4327 6.27623 42.6115 6.10041C42.7902 5.9246 42.8906 5.68614 42.8906 5.4375C42.8906 5.18886 42.7902 4.9504 42.6115 4.77459C42.4327 4.59877 42.1903 4.5 41.9375 4.5H19.0625C18.8097 4.5 18.5673 4.59877 18.3885 4.77459C18.2098 4.9504 18.1094 5.18886 18.1094 5.4375ZM8.57812 5.4375C8.57812 5.62292 8.63402 5.80418 8.73876 5.95835C8.84349 6.11252 8.99234 6.23268 9.1665 6.30364C9.34067 6.37459 9.53231 6.39316 9.7172 6.35699C9.90208 6.32081 10.0719 6.23152 10.2052 6.10041C10.3385 5.9693 10.4293 5.80225 10.4661 5.6204C10.5028 5.43854 10.484 5.25004 10.4118 5.07873C10.3397 4.90743 10.2175 4.76101 10.0608 4.658C9.90404 4.55498 9.71976 4.5 9.53125 4.5C9.27847 4.5 9.03603 4.59877 8.85729 4.77459C8.67854 4.9504 8.57812 5.18886 8.57812 5.4375ZM5.71875 5.4375C5.71875 5.62292 5.77465 5.80418 5.87938 5.95835C5.98411 6.11252 6.13297 6.23268 6.30713 6.30364C6.48129 6.37459 6.67293 6.39316 6.85782 6.35699C7.04271 6.32081 7.21254 6.23152 7.34584 6.10041C7.47913 5.9693 7.56991 5.80225 7.60669 5.6204C7.64346 5.43854 7.62459 5.25004 7.55245 5.07873C7.48031 4.90743 7.35814 4.76101 7.2014 4.658C7.04466 4.55498 6.86039 4.5 6.67188 4.5C6.41909 4.5 6.17666 4.59877 5.99791 4.77459C5.81917 4.9504 5.71875 5.18886 5.71875 5.4375ZM2.85938 5.4375C2.85938 5.62292 2.91527 5.80418 3.02001 5.95835C3.12474 6.11252 3.27359 6.23268 3.44775 6.30364C3.62192 6.37459 3.81356 6.39316 3.99845 6.35699C4.18333 6.32081 4.35316 6.23152 4.48646 6.10041C4.61976 5.9693 4.71053 5.80225 4.74731 5.6204C4.78409 5.43854 4.76521 5.25004 4.69307 5.07873C4.62093 4.90743 4.49877 4.76101 4.34203 4.658C4.18529 4.55498 4.00101 4.5 3.8125 4.5C3.55972 4.5 3.31728 4.59877 3.13854 4.77459C2.95979 4.9504 2.85938 5.18886 2.85938 5.4375ZM36.2188 29.625V30.4856C36.2152 33.6317 36.9951 36.7307 38.4905 39.5118C39.9859 42.2928 42.1511 44.6712 44.7969 46.4391V25.125H40.7938C39.7899 27.0624 38.1884 28.6376 36.2188 29.625ZM50.7062 25.125H46.7031V46.4362C49.3484 44.6679 51.5132 42.2894 53.0085 39.5084C54.5038 36.7275 55.2841 33.6287 55.2812 30.4828V29.625C53.3116 28.6376 51.7101 27.0624 50.7062 25.125ZM61 26.0625V30.4828C60.997 35.1971 59.6355 39.814 57.0733 43.7982C54.5112 47.7824 50.8533 50.9706 46.5239 52.9931L46.1475 53.1647C46.0228 53.221 45.8872 53.2501 45.75 53.2501C45.6128 53.2501 45.4772 53.221 45.3525 53.1647L44.9789 52.9941C40.6489 50.9719 36.9903 47.7837 34.4276 43.7993C31.8649 39.8149 30.5031 35.1976 30.5 30.4828V26.0625C30.5 25.8139 30.6004 25.5754 30.7792 25.3996C30.9579 25.2238 31.2003 25.125 31.4531 25.125C32.7166 25.1235 33.9279 24.6292 34.8213 23.7504C35.7147 22.8717 36.2172 21.6802 36.2188 20.4375C36.2188 20.1889 36.3192 19.9504 36.4979 19.7746C36.6767 19.5988 36.9191 19.5 37.1719 19.5H54.3281C54.5809 19.5 54.8233 19.5988 55.0021 19.7746C55.1808 19.9504 55.2812 20.1889 55.2812 20.4375C55.2828 21.6802 55.7853 22.8717 56.6787 23.7504C57.5721 24.6292 58.7834 25.1235 60.0469 25.125C60.2997 25.125 60.5421 25.2238 60.7208 25.3996C60.8996 25.5754 61 25.8139 61 26.0625ZM57.1875 29.0297C57.1874 28.8474 57.1333 28.669 57.0317 28.5165C56.9301 28.364 56.7855 28.2439 56.6156 28.1709C54.6321 27.3197 53.049 25.7626 52.1836 23.8116C52.1094 23.6445 51.9874 23.5022 51.8323 23.4023C51.6772 23.3024 51.4959 23.2492 51.3105 23.2491H40.1885C40.0031 23.2492 39.8218 23.3024 39.6668 23.4023C39.5117 23.5022 39.3896 23.6445 39.3155 23.8116C38.4501 25.7626 36.8669 27.3197 34.8834 28.1709C34.7135 28.2439 34.5689 28.364 34.4674 28.5165C34.3658 28.669 34.3116 28.8474 34.3115 29.0297V30.4828C34.306 34.241 35.32 37.9326 37.2489 41.1767C39.1779 44.4208 41.952 47.0999 45.2849 48.9375C45.4296 49.0081 45.5877 49.0486 45.749 49.0566C45.9103 49.0479 46.0682 49.0074 46.2132 48.9375C49.5458 47.0995 52.3197 44.4203 54.2488 41.1763C56.1778 37.9323 57.1923 34.241 57.1875 30.4828V29.0297Z" fill="white"/>
</svg>
