<svg width="77" height="77" viewBox="0 0 77 77" fill="none" xmlns="http://www.w3.org/2000/svg">
<g filter="url(#filter0_d_142_1749)">
<circle cx="38.5" cy="38.5005" r="23.5" fill="url(#paint0_linear_142_1749)"/>
</g>
<circle cx="38.5" cy="38.5005" r="17.5" fill="white"/>
<path d="M44.0777 46.0005H33.6817V43.2405C33.697 43.2252 34.0727 42.8648 34.8087 42.1595L36.0737 40.8945C36.3497 40.5878 36.7177 40.2045 37.1777 39.7445C37.699 39.1925 38.067 38.7555 38.2817 38.4335L39.0407 37.2605C39.5774 36.4478 39.8457 35.6122 39.8457 34.7535C39.8457 33.6955 39.355 33.1665 38.3737 33.1665C37.929 33.1665 37.5764 33.3122 37.3157 33.6035C37.055 33.8795 36.8174 34.3088 36.6027 34.8915L33.7277 33.5805C34.0037 32.3692 34.571 31.4262 35.4297 30.7515C36.3037 30.0615 37.423 29.7165 38.7877 29.7165C40.275 29.7165 41.4327 30.1382 42.2607 30.9815C43.104 31.8248 43.5257 32.8522 43.5257 34.0635C43.5257 37.1148 41.7317 40.0205 38.1437 42.7805H44.0777V46.0005Z" fill="#A232EB"/>
<defs>
<filter id="filter0_d_142_1749" x="0" y="0.000488281" width="77" height="77" filterUnits="userSpaceOnUse" color-interpolation-filters="sRGB">
<feFlood flood-opacity="0" result="BackgroundImageFix"/>
<feColorMatrix in="SourceAlpha" type="matrix" values="0 0 0 0 0 0 0 0 0 0 0 0 0 0 0 0 0 0 127 0" result="hardAlpha"/>
<feOffset/>
<feGaussianBlur stdDeviation="7.5"/>
<feComposite in2="hardAlpha" operator="out"/>
<feColorMatrix type="matrix" values="0 0 0 0 0.471877 0 0 0 0 0 0 0 0 0 0.595833 0 0 0 1 0"/>
<feBlend mode="normal" in2="BackgroundImageFix" result="effect1_dropShadow_142_1749"/>
<feBlend mode="normal" in="SourceGraphic" in2="effect1_dropShadow_142_1749" result="shape"/>
</filter>
<linearGradient id="paint0_linear_142_1749" x1="38.5" y1="15.0005" x2="38.5" y2="62.0005" gradientUnits="userSpaceOnUse">
<stop stop-color="#BE6BFF"/>
<stop offset="0.482367" stop-color="#A437ED"/>
<stop offset="1" stop-color="#8900D9"/>
</linearGradient>
</defs>
</svg>
