<svg width="77" height="77" viewBox="0 0 77 77" fill="none" xmlns="http://www.w3.org/2000/svg">
<g filter="url(#filter0_d_142_1729)">
<circle cx="38.5" cy="38.5005" r="23.5" fill="url(#paint0_linear_142_1729)"/>
</g>
<circle cx="38.5" cy="38.5005" r="17.5" fill="white"/>
<path d="M33.5642 38.9165L34.6682 29.9005H42.6262V33.3505H37.7042L37.3822 35.3975H37.9342C39.3756 35.3975 40.5716 35.8728 41.5222 36.8235C42.4882 37.7588 42.9712 39.0315 42.9712 40.6415C42.9712 42.3895 42.4192 43.7695 41.3152 44.7815C40.1959 45.7782 38.7929 46.2765 37.1062 46.2765C36.2016 46.2765 35.2969 46.0848 34.3922 45.7015C33.4876 45.3028 32.8052 44.7738 32.3452 44.1145L34.2772 41.4695C34.5992 41.8528 35.0362 42.1748 35.5882 42.4355C36.1556 42.6962 36.6922 42.8265 37.1982 42.8265C37.8116 42.8265 38.3099 42.6425 38.6932 42.2745C39.0919 41.8912 39.2912 41.4005 39.2912 40.8025C39.2912 40.1125 39.0229 39.5605 38.4862 39.1465C37.9649 38.7172 37.2442 38.5025 36.3242 38.5025C35.0516 38.5025 34.1316 38.6405 33.5642 38.9165Z" fill="#A232EB"/>
<defs>
<filter id="filter0_d_142_1729" x="0" y="0.000488281" width="77" height="77" filterUnits="userSpaceOnUse" color-interpolation-filters="sRGB">
<feFlood flood-opacity="0" result="BackgroundImageFix"/>
<feColorMatrix in="SourceAlpha" type="matrix" values="0 0 0 0 0 0 0 0 0 0 0 0 0 0 0 0 0 0 127 0" result="hardAlpha"/>
<feOffset/>
<feGaussianBlur stdDeviation="7.5"/>
<feComposite in2="hardAlpha" operator="out"/>
<feColorMatrix type="matrix" values="0 0 0 0 0.471877 0 0 0 0 0 0 0 0 0 0.595833 0 0 0 1 0"/>
<feBlend mode="normal" in2="BackgroundImageFix" result="effect1_dropShadow_142_1729"/>
<feBlend mode="normal" in="SourceGraphic" in2="effect1_dropShadow_142_1729" result="shape"/>
</filter>
<linearGradient id="paint0_linear_142_1729" x1="38.5" y1="15.0005" x2="38.5" y2="62.0005" gradientUnits="userSpaceOnUse">
<stop stop-color="#BE6BFF"/>
<stop offset="0.482367" stop-color="#A437ED"/>
<stop offset="1" stop-color="#8900D9"/>
</linearGradient>
</defs>
</svg>
