<svg width="77" height="77" viewBox="0 0 77 77" fill="none" xmlns="http://www.w3.org/2000/svg">
<g filter="url(#filter0_d_142_1737)">
<circle cx="38.5" cy="38.5005" r="23.5" fill="url(#paint0_linear_142_1737)"/>
</g>
<circle cx="38.5" cy="38.5005" r="17.5" fill="white"/>
<path d="M37.8681 35.9955H38.1671C38.6578 35.9955 39.0411 35.8575 39.3171 35.5815C39.5931 35.2902 39.7311 34.9298 39.7311 34.5005C39.7311 33.5498 39.1408 33.0745 37.9601 33.0745C37.4081 33.0745 36.9864 33.2048 36.6951 33.4655C36.4038 33.7262 36.2581 34.0712 36.2581 34.5005C36.2581 34.9298 36.3961 35.2902 36.6721 35.5815C36.9634 35.8575 37.3621 35.9955 37.8681 35.9955ZM38.1671 39.4455H37.8911C37.3238 39.4455 36.8408 39.5988 36.4421 39.9055C36.0588 40.2122 35.8671 40.6262 35.8671 41.1475C35.8671 41.6688 36.0434 42.0828 36.3961 42.3895C36.7488 42.6808 37.2778 42.8265 37.9831 42.8265C38.7038 42.8265 39.2404 42.6885 39.5931 42.4125C39.9611 42.1365 40.1374 41.7148 40.1221 41.1475C40.1068 40.6108 39.9228 40.1968 39.5701 39.9055C39.2328 39.5988 38.7651 39.4455 38.1671 39.4455ZM38.0061 46.2765C36.2888 46.2765 34.8934 45.8778 33.8201 45.0805C32.7314 44.2678 32.1871 43.1868 32.1871 41.8375C32.1871 40.8562 32.4094 40.0128 32.8541 39.3075C33.2988 38.6022 33.8968 38.0885 34.6481 37.7665V37.6975C34.0194 37.3602 33.5134 36.8618 33.1301 36.2025C32.7621 35.5432 32.5781 34.7688 32.5781 33.8795C32.5781 32.6375 33.0918 31.6178 34.1191 30.8205C35.1464 30.0232 36.4344 29.6245 37.9831 29.6245C39.5318 29.6245 40.8198 30.0232 41.8471 30.8205C42.8898 31.6332 43.4111 32.6528 43.4111 33.8795C43.4111 34.6768 43.2041 35.4205 42.7901 36.1105C42.3761 36.8005 41.8164 37.3218 41.1111 37.6745V37.7435C41.8931 37.9428 42.5371 38.3875 43.0431 39.0775C43.5491 39.7522 43.8021 40.5725 43.8021 41.5385C43.8021 43.0258 43.2654 44.1912 42.1921 45.0345C41.1034 45.8625 39.7081 46.2765 38.0061 46.2765Z" fill="#A232EB"/>
<defs>
<filter id="filter0_d_142_1737" x="0" y="0.000488281" width="77" height="77" filterUnits="userSpaceOnUse" color-interpolation-filters="sRGB">
<feFlood flood-opacity="0" result="BackgroundImageFix"/>
<feColorMatrix in="SourceAlpha" type="matrix" values="0 0 0 0 0 0 0 0 0 0 0 0 0 0 0 0 0 0 127 0" result="hardAlpha"/>
<feOffset/>
<feGaussianBlur stdDeviation="7.5"/>
<feComposite in2="hardAlpha" operator="out"/>
<feColorMatrix type="matrix" values="0 0 0 0 0.471877 0 0 0 0 0 0 0 0 0 0.595833 0 0 0 1 0"/>
<feBlend mode="normal" in2="BackgroundImageFix" result="effect1_dropShadow_142_1737"/>
<feBlend mode="normal" in="SourceGraphic" in2="effect1_dropShadow_142_1737" result="shape"/>
</filter>
<linearGradient id="paint0_linear_142_1737" x1="38.5" y1="15.0005" x2="38.5" y2="62.0005" gradientUnits="userSpaceOnUse">
<stop stop-color="#BE6BFF"/>
<stop offset="0.482367" stop-color="#A437ED"/>
<stop offset="1" stop-color="#8900D9"/>
</linearGradient>
</defs>
</svg>
