<svg width="77" height="77" viewBox="0 0 77 77" fill="none" xmlns="http://www.w3.org/2000/svg">
<g filter="url(#filter0_d_142_1721)">
<circle cx="38.5" cy="38.5005" r="23.5" fill="url(#paint0_linear_142_1721)"/>
</g>
<circle cx="38.5" cy="38.5005" r="17.5" fill="white"/>
<path d="M37.4561 46.2765C36.2294 46.2765 35.1561 46.0388 34.2361 45.5635C33.3161 45.0728 32.6184 44.4212 32.1431 43.6085L34.0521 41.0555C35.0948 42.2362 36.1528 42.8265 37.2261 42.8265C37.8701 42.8265 38.3684 42.6808 38.7211 42.3895C39.0738 42.0982 39.2501 41.7225 39.2501 41.2625C39.2501 40.0818 38.3378 39.4915 36.5131 39.4915H35.5011V36.0415H36.4211C37.0804 36.0415 37.6094 35.9035 38.0081 35.6275C38.4221 35.3362 38.6291 34.9375 38.6291 34.4315C38.6291 34.0328 38.5064 33.7108 38.2611 33.4655C38.0158 33.2048 37.6478 33.0745 37.1571 33.0745C36.0838 33.0745 35.1561 33.5575 34.3741 34.5235L32.4881 32.0395C33.4694 30.4295 35.1331 29.6245 37.4791 29.6245C38.9051 29.6245 40.0628 30.0002 40.9521 30.7515C41.8568 31.4875 42.3091 32.4842 42.3091 33.7415C42.3091 35.5355 41.5118 36.7928 39.9171 37.5135V37.5825C40.8678 37.7665 41.6038 38.2035 42.1251 38.8935C42.6618 39.5682 42.9301 40.4038 42.9301 41.4005C42.9301 42.8725 42.4088 44.0608 41.3661 44.9655C40.3388 45.8395 39.0354 46.2765 37.4561 46.2765Z" fill="#A232EB"/>
<defs>
<filter id="filter0_d_142_1721" x="0" y="0.000488281" width="77" height="77" filterUnits="userSpaceOnUse" color-interpolation-filters="sRGB">
<feFlood flood-opacity="0" result="BackgroundImageFix"/>
<feColorMatrix in="SourceAlpha" type="matrix" values="0 0 0 0 0 0 0 0 0 0 0 0 0 0 0 0 0 0 127 0" result="hardAlpha"/>
<feOffset/>
<feGaussianBlur stdDeviation="7.5"/>
<feComposite in2="hardAlpha" operator="out"/>
<feColorMatrix type="matrix" values="0 0 0 0 0.471877 0 0 0 0 0 0 0 0 0 0.595833 0 0 0 1 0"/>
<feBlend mode="normal" in2="BackgroundImageFix" result="effect1_dropShadow_142_1721"/>
<feBlend mode="normal" in="SourceGraphic" in2="effect1_dropShadow_142_1721" result="shape"/>
</filter>
<linearGradient id="paint0_linear_142_1721" x1="38.5" y1="15.0005" x2="38.5" y2="62.0005" gradientUnits="userSpaceOnUse">
<stop stop-color="#BE6BFF"/>
<stop offset="0.482367" stop-color="#A437ED"/>
<stop offset="1" stop-color="#8900D9"/>
</linearGradient>
</defs>
</svg>
