<svg width="23" height="23" viewBox="0 0 23 23" fill="none" xmlns="http://www.w3.org/2000/svg">
<path fill-rule="evenodd" clip-rule="evenodd" d="M22.1998 11.5535C22.1998 17.4911 17.3866 22.3043 11.449 22.3043C5.51153 22.3043 0.698242 17.4911 0.698242 11.5535C0.698242 5.61603 5.51153 0.802734 11.449 0.802734C17.3866 0.802734 22.1998 5.61603 22.1998 11.5535ZM14.1366 7.5218C14.1366 9.00617 12.9333 10.2095 11.4489 10.2095C9.96454 10.2095 8.76121 9.00617 8.76121 7.5218C8.76121 6.03742 9.96454 4.8341 11.4489 4.8341C12.9333 4.8341 14.1366 6.03742 14.1366 7.5218ZM11.4487 12.8974C8.73741 12.8974 6.4012 14.5033 5.33929 16.8157C6.81791 18.5308 9.00653 19.6167 11.4488 19.6167C13.891 19.6167 16.0795 18.531 17.5582 16.8158C16.4963 14.5033 14.16 12.8974 11.4487 12.8974Z" fill="white"/>
</svg>
