<svg width="16" height="16" viewBox="0 0 16 16" fill="none" xmlns="http://www.w3.org/2000/svg">
<circle cx="8" cy="8" r="8" fill="#8C0CB4"/>
<path d="M7.80882 4.60615C7.08333 4.60615 6.48039 4.9041 6 5.5L5 4.42458C5.27451 3.99628 5.67157 3.65177 6.19118 3.39106C6.71078 3.13035 7.28431 3 7.91176 3C8.87255 3 9.62255 3.23743 10.1618 3.71229C10.7206 4.17784 11 4.75978 11 5.4581C11 6.07263 10.8725 6.57076 10.6176 6.95251C10.3627 7.32495 10.0049 7.68808 9.54412 8.0419C9.48529 8.08845 9.40686 8.14898 9.30882 8.22346C9.22059 8.29795 9.14706 8.35847 9.08824 8.40503C9.03922 8.44227 8.97059 8.49814 8.88235 8.57263C8.80392 8.64711 8.7451 8.70763 8.70588 8.75419C8.66667 8.79143 8.61275 8.85196 8.54412 8.93575C8.48529 9.01024 8.44608 9.07542 8.42647 9.13128C8.40686 9.18715 8.37745 9.26164 8.33824 9.35475C8.30882 9.44786 8.29902 9.53166 8.30882 9.60615C8.32843 9.68063 8.33824 9.77374 8.33824 9.88548L6.79412 9.89944C6.73529 9.55493 6.73039 9.25233 6.77941 8.99162C6.83824 8.7216 6.96078 8.47952 7.14706 8.26536C7.34314 8.0419 7.5 7.88361 7.61765 7.7905C7.7451 7.68808 7.94608 7.53911 8.22059 7.34358C8.86765 6.91527 9.19118 6.40317 9.19118 5.80726C9.19118 5.47207 9.05882 5.18808 8.79412 4.95531C8.52941 4.72253 8.20098 4.60615 7.80882 4.60615ZM6.47059 11.8827C6.47059 11.6127 6.57843 11.3752 6.79412 11.1704C7.01961 10.9562 7.29902 10.8492 7.63235 10.8492C7.93627 10.8492 8.19118 10.9562 8.39706 11.1704C8.61275 11.3752 8.72059 11.6127 8.72059 11.8827C8.72059 12.1899 8.61765 12.4553 8.41176 12.6788C8.20588 12.8929 7.94608 13 7.63235 13C7.29902 13 7.01961 12.8929 6.79412 12.6788C6.57843 12.4553 6.47059 12.1899 6.47059 11.8827Z" fill="white"/>
</svg>
